<mxfile host="Electron" modified="2023-05-27T12:58:51.203Z" agent="Mozilla/5.0 (Windows NT 10.0; Win64; x64) AppleWebKit/537.36 (KHTML, like Gecko) draw.io/21.2.8 Chrome/112.0.5615.165 Electron/24.2.0 Safari/537.36" etag="IGO8-ebPRLEUe8mKkukN" version="21.2.8" type="device">
  <diagram name="Structure" id="3LEeWQguBGz1inWRAO87">
    <mxGraphModel dx="1300" dy="1667" grid="1" gridSize="10" guides="1" tooltips="1" connect="1" arrows="1" fold="1" page="1" pageScale="1" pageWidth="1169" pageHeight="827" math="0" shadow="0">
      <root>
        <mxCell id="0" />
        <mxCell id="1" parent="0" />
        <mxCell id="uOhwQ_3bFJszyhU1PJdD-1" value="" style="rounded=0;whiteSpace=wrap;html=1;fillColor=none;verticalAlign=top;strokeColor=#A680B8;strokeWidth=1;fontFamily=Courier New;fontStyle=1" parent="1" vertex="1">
          <mxGeometry x="100" y="320" width="220" height="520" as="geometry" />
        </mxCell>
        <mxCell id="NXQPdlzBaVOP-Oa7sGbx-66" style="edgeStyle=orthogonalEdgeStyle;rounded=0;orthogonalLoop=1;jettySize=auto;html=1;exitX=1;exitY=0.5;exitDx=0;exitDy=0;entryX=0;entryY=0.5;entryDx=0;entryDy=0;fontFamily=Courier New;" parent="1" source="NXQPdlzBaVOP-Oa7sGbx-63" target="DwArHJQS7v58Wav9PRxB-4" edge="1">
          <mxGeometry relative="1" as="geometry" />
        </mxCell>
        <mxCell id="NXQPdlzBaVOP-Oa7sGbx-57" style="edgeStyle=orthogonalEdgeStyle;rounded=0;orthogonalLoop=1;jettySize=auto;html=1;exitX=1;exitY=0.5;exitDx=0;exitDy=0;entryX=0.5;entryY=0;entryDx=0;entryDy=0;fontFamily=Courier New;" parent="1" source="NXQPdlzBaVOP-Oa7sGbx-54" target="Xh0cIQ-4y86dnE4VFCaW-52" edge="1">
          <mxGeometry relative="1" as="geometry" />
        </mxCell>
        <mxCell id="NXQPdlzBaVOP-Oa7sGbx-16" style="edgeStyle=orthogonalEdgeStyle;rounded=0;orthogonalLoop=1;jettySize=auto;html=1;exitX=1;exitY=0.5;exitDx=0;exitDy=0;entryX=0.5;entryY=0;entryDx=0;entryDy=0;strokeColor=#990000;fontFamily=Courier New;" parent="1" source="NXQPdlzBaVOP-Oa7sGbx-31" target="uOhwQ_3bFJszyhU1PJdD-2" edge="1">
          <mxGeometry relative="1" as="geometry">
            <Array as="points">
              <mxPoint x="1010" y="-360" />
              <mxPoint x="1010" y="-520" />
              <mxPoint x="150" y="-520" />
            </Array>
          </mxGeometry>
        </mxCell>
        <mxCell id="NXQPdlzBaVOP-Oa7sGbx-15" value="" style="rounded=0;whiteSpace=wrap;html=1;fontFamily=Courier New;" parent="1" vertex="1">
          <mxGeometry x="920" y="-400" width="70" height="110" as="geometry" />
        </mxCell>
        <mxCell id="NXQPdlzBaVOP-Oa7sGbx-1" value="DECODE" style="rounded=0;whiteSpace=wrap;html=1;fontSize=10;fontFamily=Courier New;fontStyle=1" parent="1" vertex="1">
          <mxGeometry x="560" y="-480" width="120" height="480" as="geometry" />
        </mxCell>
        <mxCell id="uOhwQ_3bFJszyhU1PJdD-127" value="DMEM" style="rounded=0;whiteSpace=wrap;html=1;fillColor=none;verticalAlign=top;strokeColor=#A680B8;strokeWidth=1;fontFamily=Courier New;" parent="1" vertex="1">
          <mxGeometry x="1199" y="380" width="201" height="140" as="geometry" />
        </mxCell>
        <mxCell id="uOhwQ_3bFJszyhU1PJdD-22" value="IMEM" style="rounded=0;whiteSpace=wrap;html=1;fillColor=none;verticalAlign=top;strokeColor=#A680B8;strokeWidth=1;fontFamily=Courier New;" parent="1" vertex="1">
          <mxGeometry x="360" y="380" width="160" height="100" as="geometry" />
        </mxCell>
        <mxCell id="Xh0cIQ-4y86dnE4VFCaW-32" style="edgeStyle=orthogonalEdgeStyle;rounded=0;orthogonalLoop=1;jettySize=auto;html=1;exitX=1;exitY=0.5;exitDx=0;exitDy=0;fontSize=10;strokeWidth=2;fontFamily=Courier New;entryX=0;entryY=0.5;entryDx=0;entryDy=0;" parent="1" source="Xh0cIQ-4y86dnE4VFCaW-2" target="uOhwQ_3bFJszyhU1PJdD-78" edge="1">
          <mxGeometry relative="1" as="geometry">
            <Array as="points">
              <mxPoint x="260" y="440" />
              <mxPoint x="260" y="720" />
              <mxPoint x="460" y="720" />
              <mxPoint x="460" y="660" />
            </Array>
          </mxGeometry>
        </mxCell>
        <mxCell id="Xh0cIQ-4y86dnE4VFCaW-4" value="" style="edgeStyle=orthogonalEdgeStyle;rounded=0;orthogonalLoop=1;jettySize=auto;html=1;exitX=0.5;exitY=0;exitDx=0;exitDy=0;strokeWidth=2;fontSize=10;fontFamily=Courier New;" parent="1" source="Xh0cIQ-4y86dnE4VFCaW-1" target="Xh0cIQ-4y86dnE4VFCaW-2" edge="1">
          <mxGeometry relative="1" as="geometry" />
        </mxCell>
        <mxCell id="Xh0cIQ-4y86dnE4VFCaW-1" value="" style="shape=trapezoid;perimeter=trapezoidPerimeter;whiteSpace=wrap;html=1;fixedSize=1;direction=south;fontSize=10;size=10;fontFamily=Courier New;" parent="1" vertex="1">
          <mxGeometry x="140" y="420" width="20" height="40" as="geometry" />
        </mxCell>
        <mxCell id="Xh0cIQ-4y86dnE4VFCaW-5" value="" style="edgeStyle=orthogonalEdgeStyle;rounded=0;orthogonalLoop=1;jettySize=auto;html=1;exitX=1;exitY=0.5;exitDx=0;exitDy=0;entryX=0;entryY=0.5;entryDx=0;entryDy=0;strokeWidth=2;fontSize=10;fontFamily=Courier New;" parent="1" source="Xh0cIQ-4y86dnE4VFCaW-2" target="Xh0cIQ-4y86dnE4VFCaW-19" edge="1">
          <mxGeometry relative="1" as="geometry">
            <mxPoint x="380" y="439.90476190476187" as="targetPoint" />
          </mxGeometry>
        </mxCell>
        <mxCell id="Xh0cIQ-4y86dnE4VFCaW-8" style="edgeStyle=orthogonalEdgeStyle;rounded=0;orthogonalLoop=1;jettySize=auto;html=1;exitX=1;exitY=0.5;exitDx=0;exitDy=0;entryX=0.5;entryY=0;entryDx=0;entryDy=0;strokeWidth=2;fontSize=10;fontFamily=Courier New;" parent="1" source="Xh0cIQ-4y86dnE4VFCaW-2" target="Xh0cIQ-4y86dnE4VFCaW-9" edge="1">
          <mxGeometry relative="1" as="geometry">
            <mxPoint x="327.32233047034197" y="527.322330470342" as="targetPoint" />
            <Array as="points">
              <mxPoint x="260" y="440" />
            </Array>
          </mxGeometry>
        </mxCell>
        <mxCell id="Xh0cIQ-4y86dnE4VFCaW-2" value="PC" style="rounded=0;whiteSpace=wrap;html=1;fillColor=#fff2cc;strokeColor=#000000;fontStyle=1;fontSize=10;fontFamily=Courier New;" parent="1" vertex="1">
          <mxGeometry x="200" y="420" width="40" height="40" as="geometry" />
        </mxCell>
        <mxCell id="Xh0cIQ-4y86dnE4VFCaW-3" value="" style="triangle;whiteSpace=wrap;html=1;direction=south;fontSize=10;fontFamily=Courier New;" parent="1" vertex="1">
          <mxGeometry x="210" y="420" width="20" height="10" as="geometry" />
        </mxCell>
        <mxCell id="Xh0cIQ-4y86dnE4VFCaW-12" style="edgeStyle=orthogonalEdgeStyle;rounded=0;orthogonalLoop=1;jettySize=auto;html=1;exitX=1;exitY=0.5;exitDx=0;exitDy=0;entryX=0.25;entryY=1;entryDx=0;entryDy=0;strokeWidth=2;fontSize=10;fontFamily=Courier New;" parent="1" source="Xh0cIQ-4y86dnE4VFCaW-9" target="Xh0cIQ-4y86dnE4VFCaW-1" edge="1">
          <mxGeometry relative="1" as="geometry">
            <Array as="points">
              <mxPoint x="300" y="780" />
              <mxPoint x="300" y="820" />
              <mxPoint x="120" y="820" />
              <mxPoint x="120" y="430" />
            </Array>
          </mxGeometry>
        </mxCell>
        <mxCell id="DwArHJQS7v58Wav9PRxB-3" style="edgeStyle=orthogonalEdgeStyle;rounded=0;orthogonalLoop=1;jettySize=auto;html=1;exitX=1;exitY=0.5;exitDx=0;exitDy=0;entryX=0.599;entryY=0.961;entryDx=0;entryDy=0;strokeWidth=2;fontFamily=Courier New;entryPerimeter=0;" parent="1" source="uOhwQ_3bFJszyhU1PJdD-184" target="DwArHJQS7v58Wav9PRxB-4" edge="1">
          <mxGeometry relative="1" as="geometry">
            <mxPoint x="1450" y="520" as="targetPoint" />
            <Array as="points">
              <mxPoint x="1420" y="780" />
              <mxPoint x="1420" y="480" />
            </Array>
          </mxGeometry>
        </mxCell>
        <mxCell id="uOhwQ_3bFJszyhU1PJdD-116" style="edgeStyle=orthogonalEdgeStyle;rounded=0;orthogonalLoop=1;jettySize=auto;html=1;exitX=1;exitY=0.5;exitDx=0;exitDy=0;entryX=0;entryY=0.5;entryDx=0;entryDy=0;strokeWidth=2;fontFamily=Courier New;" parent="1" source="Xh0cIQ-4y86dnE4VFCaW-9" target="uOhwQ_3bFJszyhU1PJdD-114" edge="1">
          <mxGeometry relative="1" as="geometry" />
        </mxCell>
        <mxCell id="Xh0cIQ-4y86dnE4VFCaW-9" value="+" style="rounded=0;whiteSpace=wrap;html=1;fontSize=10;fontFamily=Courier New;" parent="1" vertex="1">
          <mxGeometry x="240" y="760" width="40" height="40" as="geometry" />
        </mxCell>
        <mxCell id="Xh0cIQ-4y86dnE4VFCaW-11" style="edgeStyle=orthogonalEdgeStyle;rounded=0;orthogonalLoop=1;jettySize=auto;html=1;exitX=1;exitY=0.5;exitDx=0;exitDy=0;entryX=0;entryY=0.5;entryDx=0;entryDy=0;fontSize=10;fontFamily=Courier New;" parent="1" source="Xh0cIQ-4y86dnE4VFCaW-10" target="Xh0cIQ-4y86dnE4VFCaW-9" edge="1">
          <mxGeometry relative="1" as="geometry" />
        </mxCell>
        <mxCell id="Xh0cIQ-4y86dnE4VFCaW-10" value="4" style="text;html=1;strokeColor=none;fillColor=none;align=center;verticalAlign=middle;whiteSpace=wrap;rounded=0;fontSize=10;fontFamily=Courier New;" parent="1" vertex="1">
          <mxGeometry x="175" y="760" width="40" height="40" as="geometry" />
        </mxCell>
        <mxCell id="Xh0cIQ-4y86dnE4VFCaW-55" style="edgeStyle=orthogonalEdgeStyle;rounded=0;orthogonalLoop=1;jettySize=auto;html=1;exitDx=0;exitDy=0;entryX=0;entryY=0.5;entryDx=0;entryDy=0;strokeWidth=2;exitX=1;exitY=0.5;fontFamily=Courier New;" parent="1" source="uOhwQ_3bFJszyhU1PJdD-177" target="uOhwQ_3bFJszyhU1PJdD-54" edge="1">
          <mxGeometry relative="1" as="geometry">
            <Array as="points">
              <mxPoint x="1430" y="340" />
              <mxPoint x="1430" y="400" />
            </Array>
            <mxPoint x="1330" y="420" as="targetPoint" />
            <mxPoint x="1150" y="440" as="sourcePoint" />
          </mxGeometry>
        </mxCell>
        <mxCell id="pMKp896EoyDVb8t9SzU1-1" value="" style="edgeStyle=orthogonalEdgeStyle;rounded=0;orthogonalLoop=1;jettySize=auto;html=1;exitX=1;exitY=0.5;exitDx=0;exitDy=0;entryX=1;entryY=0.5;entryDx=0;entryDy=0;fontFamily=Courier New;" parent="1" source="uOhwQ_3bFJszyhU1PJdD-191" target="uOhwQ_3bFJszyhU1PJdD-45" edge="1">
          <mxGeometry relative="1" as="geometry">
            <mxPoint x="1000" y="540" as="sourcePoint" />
            <mxPoint x="1010" y="290" as="targetPoint" />
            <Array as="points">
              <mxPoint x="1010" y="390" />
              <mxPoint x="1010" y="-320" />
            </Array>
          </mxGeometry>
        </mxCell>
        <mxCell id="uOhwQ_3bFJszyhU1PJdD-39" style="edgeStyle=orthogonalEdgeStyle;rounded=0;orthogonalLoop=1;jettySize=auto;html=1;exitX=1;exitY=0.5;exitDx=0;exitDy=0;entryX=0;entryY=0.5;entryDx=0;entryDy=0;strokeWidth=2;fontFamily=Courier New;" parent="1" source="uOhwQ_3bFJszyhU1PJdD-122" target="uOhwQ_3bFJszyhU1PJdD-37" edge="1">
          <mxGeometry relative="1" as="geometry" />
        </mxCell>
        <mxCell id="Xh0cIQ-4y86dnE4VFCaW-13" value="ALU" style="rounded=0;whiteSpace=wrap;html=1;fontStyle=1;fontSize=10;fontFamily=Courier New;strokeColor=#A680B8;" parent="1" vertex="1">
          <mxGeometry x="960" y="360" width="40" height="130" as="geometry" />
        </mxCell>
        <mxCell id="Xh0cIQ-4y86dnE4VFCaW-15" value="" style="endArrow=classic;html=1;rounded=0;entryX=0;entryY=0.5;entryDx=0;entryDy=0;endFill=1;endSize=6;startSize=6;jumpSize=6;fontSize=10;fontFamily=Courier New;exitX=0.5;exitY=1;exitDx=0;exitDy=0;strokeColor=#990000;" parent="1" source="uOhwQ_3bFJszyhU1PJdD-2" target="Xh0cIQ-4y86dnE4VFCaW-1" edge="1">
          <mxGeometry width="50" height="50" relative="1" as="geometry">
            <mxPoint x="150" y="320" as="sourcePoint" />
            <mxPoint x="300" y="390" as="targetPoint" />
          </mxGeometry>
        </mxCell>
        <mxCell id="Xh0cIQ-4y86dnE4VFCaW-16" value="Register&lt;br style=&quot;font-size: 10px;&quot;&gt;File" style="rounded=0;whiteSpace=wrap;html=1;fillColor=#fff2cc;strokeColor=#A680B8;fontStyle=1;fontSize=10;fontFamily=Courier New;" parent="1" vertex="1">
          <mxGeometry x="600" y="320" width="120" height="200" as="geometry" />
        </mxCell>
        <mxCell id="Xh0cIQ-4y86dnE4VFCaW-18" value="" style="endArrow=none;html=1;rounded=0;strokeWidth=3;labelPosition=center;verticalLabelPosition=bottom;align=center;verticalAlign=top;fontSize=10;fontFamily=Courier New;" parent="1" edge="1">
          <mxGeometry x="-0.9167" width="50" height="50" relative="1" as="geometry">
            <mxPoint x="560" y="760" as="sourcePoint" />
            <mxPoint x="560" y="200" as="targetPoint" />
            <mxPoint as="offset" />
          </mxGeometry>
        </mxCell>
        <mxCell id="Xh0cIQ-4y86dnE4VFCaW-20" value="" style="edgeStyle=orthogonalEdgeStyle;rounded=0;orthogonalLoop=1;jettySize=auto;html=1;exitX=1;exitY=0.5;exitDx=0;exitDy=0;strokeWidth=2;fontSize=10;entryX=0;entryY=0.5;entryDx=0;entryDy=0;fontFamily=Courier New;" parent="1" source="Xh0cIQ-4y86dnE4VFCaW-19" target="uOhwQ_3bFJszyhU1PJdD-10" edge="1">
          <mxGeometry relative="1" as="geometry">
            <mxPoint x="520" y="440" as="targetPoint" />
          </mxGeometry>
        </mxCell>
        <mxCell id="Xh0cIQ-4y86dnE4VFCaW-19" value="IMEM" style="rounded=0;whiteSpace=wrap;html=1;fontStyle=1;fontSize=10;fillColor=#fff2cc;strokeColor=#000000;fontFamily=Courier New;" parent="1" vertex="1">
          <mxGeometry x="360" y="400" width="40" height="80" as="geometry" />
        </mxCell>
        <mxCell id="uOhwQ_3bFJszyhU1PJdD-76" style="edgeStyle=orthogonalEdgeStyle;rounded=0;orthogonalLoop=1;jettySize=auto;html=1;exitX=1;exitY=0.5;exitDx=0;exitDy=0;entryX=0;entryY=0.5;entryDx=0;entryDy=0;strokeWidth=2;fontFamily=Courier New;" parent="1" source="Xh0cIQ-4y86dnE4VFCaW-21" target="uOhwQ_3bFJszyhU1PJdD-74" edge="1">
          <mxGeometry relative="1" as="geometry" />
        </mxCell>
        <mxCell id="Xh0cIQ-4y86dnE4VFCaW-21" value="IMM Extend" style="shape=manualInput;whiteSpace=wrap;html=1;size=0;fontSize=10;strokeColor=#A680B8;fontFamily=Courier New;" parent="1" vertex="1">
          <mxGeometry x="600" y="700" width="120" height="40" as="geometry" />
        </mxCell>
        <mxCell id="Xh0cIQ-4y86dnE4VFCaW-22" value="" style="endArrow=classic;html=1;rounded=0;entryX=0;entryY=0.5;entryDx=0;entryDy=0;fontSize=10;fontFamily=Courier New;strokeWidth=2;" parent="1" target="Xh0cIQ-4y86dnE4VFCaW-21" edge="1">
          <mxGeometry width="50" height="50" relative="1" as="geometry">
            <mxPoint x="560" y="720" as="sourcePoint" />
            <mxPoint x="600" y="750" as="targetPoint" />
          </mxGeometry>
        </mxCell>
        <mxCell id="Xh0cIQ-4y86dnE4VFCaW-23" value="rs1" style="endArrow=classic;html=1;rounded=0;entryX=0;entryY=0.5;entryDx=0;entryDy=0;fontSize=10;fontFamily=Courier New;" parent="1" target="Xh0cIQ-4y86dnE4VFCaW-71" edge="1">
          <mxGeometry width="50" height="50" relative="1" as="geometry">
            <mxPoint x="560" y="380" as="sourcePoint" />
            <mxPoint x="640" y="380" as="targetPoint" />
          </mxGeometry>
        </mxCell>
        <mxCell id="Xh0cIQ-4y86dnE4VFCaW-24" value="rs2" style="endArrow=classic;html=1;rounded=0;entryX=0;entryY=0.5;entryDx=0;entryDy=0;fontSize=10;fontFamily=Courier New;exitX=1;exitY=0.5;exitDx=0;exitDy=0;" parent="1" source="uOhwQ_3bFJszyhU1PJdD-212" target="Xh0cIQ-4y86dnE4VFCaW-70" edge="1">
          <mxGeometry width="50" height="50" relative="1" as="geometry">
            <mxPoint x="560" y="450" as="sourcePoint" />
            <mxPoint x="640" y="450" as="targetPoint" />
          </mxGeometry>
        </mxCell>
        <mxCell id="Xh0cIQ-4y86dnE4VFCaW-25" value="" style="endArrow=classic;html=1;rounded=0;entryX=0;entryY=0.5;entryDx=0;entryDy=0;fontSize=10;fontFamily=Courier New;" parent="1" target="uOhwQ_3bFJszyhU1PJdD-196" edge="1">
          <mxGeometry width="50" height="50" relative="1" as="geometry">
            <mxPoint x="560" y="580" as="sourcePoint" />
            <mxPoint x="600" y="580" as="targetPoint" />
            <Array as="points" />
          </mxGeometry>
        </mxCell>
        <mxCell id="Xh0cIQ-4y86dnE4VFCaW-26" value="" style="triangle;whiteSpace=wrap;html=1;direction=south;fontSize=10;fontFamily=Courier New;" parent="1" vertex="1">
          <mxGeometry x="605" y="320" width="20" height="10" as="geometry" />
        </mxCell>
        <mxCell id="Xh0cIQ-4y86dnE4VFCaW-29" value="" style="shape=trapezoid;perimeter=trapezoidPerimeter;whiteSpace=wrap;html=1;fixedSize=1;direction=south;size=10;fontSize=10;fontFamily=Courier New;" parent="1" vertex="1">
          <mxGeometry x="920" y="450" width="20" height="40" as="geometry" />
        </mxCell>
        <mxCell id="Xh0cIQ-4y86dnE4VFCaW-31" value="" style="endArrow=classic;html=1;rounded=0;strokeWidth=2;fontSize=10;exitX=1;exitY=0.5;exitDx=0;exitDy=0;entryX=0;entryY=0.5;entryDx=0;entryDy=0;fontFamily=Courier New;" parent="1" source="uOhwQ_3bFJszyhU1PJdD-27" target="uOhwQ_3bFJszyhU1PJdD-119" edge="1">
          <mxGeometry width="50" height="50" relative="1" as="geometry">
            <mxPoint x="760" y="409.8" as="sourcePoint" />
            <mxPoint x="880" y="380" as="targetPoint" />
          </mxGeometry>
        </mxCell>
        <mxCell id="Xh0cIQ-4y86dnE4VFCaW-35" value="" style="endArrow=classic;html=1;rounded=0;endFill=1;endSize=6;startSize=6;jumpSize=6;fontSize=10;fontFamily=Courier New;exitX=1;exitY=0.5;exitDx=0;exitDy=0;entryX=0.5;entryY=0;entryDx=0;entryDy=0;" parent="1" source="NXQPdlzBaVOP-Oa7sGbx-11" target="Xh0cIQ-4y86dnE4VFCaW-13" edge="1">
          <mxGeometry width="50" height="50" relative="1" as="geometry">
            <mxPoint x="980" y="120" as="sourcePoint" />
            <mxPoint x="980" y="360" as="targetPoint" />
            <Array as="points">
              <mxPoint x="980" y="-260" />
            </Array>
          </mxGeometry>
        </mxCell>
        <mxCell id="Xh0cIQ-4y86dnE4VFCaW-54" style="edgeStyle=orthogonalEdgeStyle;rounded=0;orthogonalLoop=1;jettySize=auto;html=1;exitX=1;exitY=0.5;exitDx=0;exitDy=0;entryX=0;entryY=0.5;entryDx=0;entryDy=0;strokeWidth=2;fontFamily=Courier New;" parent="1" source="Xh0cIQ-4y86dnE4VFCaW-57" target="uOhwQ_3bFJszyhU1PJdD-58" edge="1">
          <mxGeometry relative="1" as="geometry">
            <Array as="points" />
            <mxPoint x="1320" y="440" as="targetPoint" />
          </mxGeometry>
        </mxCell>
        <mxCell id="Xh0cIQ-4y86dnE4VFCaW-36" value="IMEM" style="rounded=0;whiteSpace=wrap;html=1;fillColor=#fff2cc;strokeColor=#000000;fontStyle=1;fontSize=10;fontFamily=Courier New;" parent="1" vertex="1">
          <mxGeometry x="1200" y="400" width="80" height="120" as="geometry" />
        </mxCell>
        <mxCell id="Xh0cIQ-4y86dnE4VFCaW-37" value="" style="triangle;whiteSpace=wrap;html=1;direction=south;fontSize=10;fontFamily=Courier New;" parent="1" vertex="1">
          <mxGeometry x="1210" y="400" width="20" height="10" as="geometry" />
        </mxCell>
        <mxCell id="Xh0cIQ-4y86dnE4VFCaW-39" value="" style="endArrow=classic;html=1;rounded=0;strokeWidth=2;fontSize=10;entryX=0;entryY=0.5;entryDx=0;entryDy=0;exitX=1;exitY=0.5;exitDx=0;exitDy=0;fontFamily=Courier New;" parent="1" source="uOhwQ_3bFJszyhU1PJdD-37" target="Xh0cIQ-4y86dnE4VFCaW-60" edge="1">
          <mxGeometry x="0.0058" width="50" height="50" relative="1" as="geometry">
            <mxPoint x="1140" y="440" as="sourcePoint" />
            <mxPoint x="1200" y="440" as="targetPoint" />
            <mxPoint as="offset" />
          </mxGeometry>
        </mxCell>
        <mxCell id="Xh0cIQ-4y86dnE4VFCaW-42" value="" style="endArrow=classic;html=1;rounded=0;entryX=0;entryY=0.5;entryDx=0;entryDy=0;endFill=1;endSize=6;startSize=6;jumpSize=6;fontSize=10;fontFamily=Courier New;exitX=1;exitY=0.5;exitDx=0;exitDy=0;" parent="1" source="NXQPdlzBaVOP-Oa7sGbx-5" target="Xh0cIQ-4y86dnE4VFCaW-29" edge="1">
          <mxGeometry width="50" height="50" relative="1" as="geometry">
            <mxPoint x="930" y="120" as="sourcePoint" />
            <mxPoint x="990.14" y="405" as="targetPoint" />
            <Array as="points">
              <mxPoint x="930" y="-200" />
            </Array>
          </mxGeometry>
        </mxCell>
        <mxCell id="Xh0cIQ-4y86dnE4VFCaW-43" value="" style="rounded=0;whiteSpace=wrap;html=1;fontSize=10;fontFamily=Courier New;" parent="1" vertex="1">
          <mxGeometry x="40" y="100" width="1480" height="20" as="geometry" />
        </mxCell>
        <mxCell id="Xh0cIQ-4y86dnE4VFCaW-48" value="" style="edgeStyle=segmentEdgeStyle;endArrow=classic;html=1;curved=0;rounded=0;endSize=6;startSize=6;endFill=1;jumpSize=6;fontSize=10;entryX=0.5;entryY=1;entryDx=0;entryDy=0;fontFamily=Courier New;exitX=1;exitY=0.5;exitDx=0;exitDy=0;" parent="1" source="uOhwQ_3bFJszyhU1PJdD-110" target="uOhwQ_3bFJszyhU1PJdD-46" edge="1">
          <mxGeometry width="50" height="50" relative="1" as="geometry">
            <mxPoint x="560" y="370" as="sourcePoint" />
            <mxPoint x="580" y="280" as="targetPoint" />
            <Array as="points">
              <mxPoint x="580" y="230" />
            </Array>
          </mxGeometry>
        </mxCell>
        <mxCell id="Xh0cIQ-4y86dnE4VFCaW-49" value="" style="edgeStyle=segmentEdgeStyle;endArrow=classic;html=1;curved=0;rounded=0;endSize=6;startSize=6;endFill=1;jumpSize=6;fontSize=10;entryX=0.5;entryY=1;entryDx=0;entryDy=0;fontFamily=Courier New;exitX=1;exitY=0.5;exitDx=0;exitDy=0;" parent="1" source="uOhwQ_3bFJszyhU1PJdD-112" target="uOhwQ_3bFJszyhU1PJdD-47" edge="1">
          <mxGeometry x="0.0015" width="50" height="50" relative="1" as="geometry">
            <mxPoint x="560" y="380" as="sourcePoint" />
            <mxPoint x="600" y="280" as="targetPoint" />
            <Array as="points">
              <mxPoint x="600" y="250" />
            </Array>
            <mxPoint as="offset" />
          </mxGeometry>
        </mxCell>
        <mxCell id="Xh0cIQ-4y86dnE4VFCaW-50" value="" style="edgeStyle=segmentEdgeStyle;endArrow=classic;html=1;curved=0;rounded=0;endSize=6;startSize=6;endFill=1;jumpSize=6;fontSize=10;entryX=0.5;entryY=1;entryDx=0;entryDy=0;fontFamily=Courier New;exitX=1;exitY=0.5;exitDx=0;exitDy=0;" parent="1" source="uOhwQ_3bFJszyhU1PJdD-111" target="uOhwQ_3bFJszyhU1PJdD-48" edge="1">
          <mxGeometry width="50" height="50" relative="1" as="geometry">
            <mxPoint x="560" y="390" as="sourcePoint" />
            <mxPoint x="620" y="280" as="targetPoint" />
            <Array as="points">
              <mxPoint x="620" y="270" />
            </Array>
          </mxGeometry>
        </mxCell>
        <mxCell id="Xh0cIQ-4y86dnE4VFCaW-52" value="WE" style="text;html=1;strokeColor=none;fillColor=none;align=center;verticalAlign=middle;whiteSpace=wrap;rounded=0;fontSize=10;fontFamily=Courier New;" parent="1" vertex="1">
          <mxGeometry x="1250" y="400" width="20" height="20" as="geometry" />
        </mxCell>
        <mxCell id="Xh0cIQ-4y86dnE4VFCaW-73" style="edgeStyle=orthogonalEdgeStyle;rounded=0;orthogonalLoop=1;jettySize=auto;html=1;entryX=0;entryY=0.5;entryDx=0;entryDy=0;strokeWidth=2;fontFamily=Courier New;exitX=0.5;exitY=0;exitDx=0;exitDy=0;strokeColor=#990000;" parent="1" source="DwArHJQS7v58Wav9PRxB-4" target="Xh0cIQ-4y86dnE4VFCaW-68" edge="1">
          <mxGeometry relative="1" as="geometry">
            <Array as="points">
              <mxPoint x="1490" y="460" />
              <mxPoint x="1490" y="860" />
              <mxPoint x="580" y="860" />
              <mxPoint x="580" y="500" />
            </Array>
            <mxPoint x="1810" y="630" as="sourcePoint" />
            <mxPoint x="990" y="670" as="targetPoint" />
          </mxGeometry>
        </mxCell>
        <mxCell id="Xh0cIQ-4y86dnE4VFCaW-57" value="RD" style="text;html=1;strokeColor=none;fillColor=none;align=center;verticalAlign=middle;whiteSpace=wrap;rounded=0;fontSize=10;fontFamily=Courier New;" parent="1" vertex="1">
          <mxGeometry x="1260" y="430" width="20" height="20" as="geometry" />
        </mxCell>
        <mxCell id="DwArHJQS7v58Wav9PRxB-6" style="edgeStyle=orthogonalEdgeStyle;rounded=0;orthogonalLoop=1;jettySize=auto;html=1;exitX=1;exitY=0.5;exitDx=0;exitDy=0;entryX=0;entryY=0.5;entryDx=0;entryDy=0;strokeWidth=2;fontFamily=Courier New;" parent="1" source="Xh0cIQ-4y86dnE4VFCaW-58" target="uOhwQ_3bFJszyhU1PJdD-27" edge="1">
          <mxGeometry relative="1" as="geometry">
            <Array as="points">
              <mxPoint x="730" y="380" />
              <mxPoint x="730" y="380" />
            </Array>
            <mxPoint x="900" y="510" as="targetPoint" />
          </mxGeometry>
        </mxCell>
        <mxCell id="Xh0cIQ-4y86dnE4VFCaW-58" value="RD1" style="text;html=1;strokeColor=none;fillColor=none;align=center;verticalAlign=middle;whiteSpace=wrap;rounded=0;fontSize=10;fontFamily=Courier New;" parent="1" vertex="1">
          <mxGeometry x="690" y="370" width="30" height="20" as="geometry" />
        </mxCell>
        <mxCell id="nlMXq3PYJxnYt71wBByD-2" style="edgeStyle=orthogonalEdgeStyle;rounded=0;orthogonalLoop=1;jettySize=auto;html=1;exitX=1;exitY=0.5;exitDx=0;exitDy=0;entryX=0;entryY=0.5;entryDx=0;entryDy=0;strokeWidth=2;fontFamily=Courier New;" parent="1" source="Xh0cIQ-4y86dnE4VFCaW-59" target="uOhwQ_3bFJszyhU1PJdD-29" edge="1">
          <mxGeometry relative="1" as="geometry">
            <Array as="points">
              <mxPoint x="730" y="460" />
              <mxPoint x="730" y="460" />
            </Array>
          </mxGeometry>
        </mxCell>
        <mxCell id="Xh0cIQ-4y86dnE4VFCaW-59" value="RD2" style="text;html=1;strokeColor=none;fillColor=none;align=center;verticalAlign=middle;whiteSpace=wrap;rounded=0;fontSize=10;fontFamily=Courier New;" parent="1" vertex="1">
          <mxGeometry x="690" y="450" width="30" height="20" as="geometry" />
        </mxCell>
        <mxCell id="Xh0cIQ-4y86dnE4VFCaW-60" value="A" style="text;html=1;strokeColor=none;fillColor=none;align=center;verticalAlign=middle;whiteSpace=wrap;rounded=0;fontSize=10;fontFamily=Courier New;" parent="1" vertex="1">
          <mxGeometry x="1199" y="430" width="30" height="20" as="geometry" />
        </mxCell>
        <mxCell id="Xh0cIQ-4y86dnE4VFCaW-68" value="WD3" style="text;html=1;strokeColor=none;fillColor=none;align=left;verticalAlign=middle;whiteSpace=wrap;rounded=0;fontSize=10;fontFamily=Courier New;" parent="1" vertex="1">
          <mxGeometry x="600" y="490" width="30" height="20" as="geometry" />
        </mxCell>
        <mxCell id="Xh0cIQ-4y86dnE4VFCaW-69" value="A3" style="text;html=1;strokeColor=none;fillColor=none;align=left;verticalAlign=middle;whiteSpace=wrap;rounded=0;fontSize=10;fontFamily=Courier New;" parent="1" vertex="1">
          <mxGeometry x="600" y="470" width="30" height="20" as="geometry" />
        </mxCell>
        <mxCell id="Xh0cIQ-4y86dnE4VFCaW-70" value="A2" style="text;html=1;strokeColor=none;fillColor=none;align=left;verticalAlign=middle;whiteSpace=wrap;rounded=0;fontSize=10;fontFamily=Courier New;" parent="1" vertex="1">
          <mxGeometry x="600" y="450" width="30" height="20" as="geometry" />
        </mxCell>
        <mxCell id="Xh0cIQ-4y86dnE4VFCaW-71" value="A1" style="text;html=1;strokeColor=none;fillColor=none;align=left;verticalAlign=middle;whiteSpace=wrap;rounded=0;fontSize=10;fontFamily=Courier New;" parent="1" vertex="1">
          <mxGeometry x="600" y="370" width="30" height="20" as="geometry" />
        </mxCell>
        <mxCell id="Xh0cIQ-4y86dnE4VFCaW-72" value="WE3" style="text;html=1;strokeColor=none;fillColor=none;align=center;verticalAlign=middle;whiteSpace=wrap;rounded=0;fontSize=10;fontFamily=Courier New;" parent="1" vertex="1">
          <mxGeometry x="645" y="320" width="30" height="20" as="geometry" />
        </mxCell>
        <mxCell id="DwArHJQS7v58Wav9PRxB-4" value="" style="shape=trapezoid;perimeter=trapezoidPerimeter;whiteSpace=wrap;html=1;fixedSize=1;direction=south;fontSize=10;size=10;fontFamily=Courier New;" parent="1" vertex="1">
          <mxGeometry x="1450" y="360" width="20" height="200" as="geometry" />
        </mxCell>
        <mxCell id="nlMXq3PYJxnYt71wBByD-1" value="WD" style="text;html=1;strokeColor=none;fillColor=none;align=center;verticalAlign=middle;whiteSpace=wrap;rounded=0;fontSize=10;fontFamily=Courier New;" parent="1" vertex="1">
          <mxGeometry x="1200" y="490" width="30" height="20" as="geometry" />
        </mxCell>
        <mxCell id="uOhwQ_3bFJszyhU1PJdD-2" value="&lt;span style=&quot;color: rgb(0, 0, 0); font-size: 10px; font-style: normal; font-variant-ligatures: normal; font-variant-caps: normal; font-weight: 400; letter-spacing: normal; orphans: 2; text-indent: 0px; text-transform: none; widows: 2; word-spacing: 0px; -webkit-text-stroke-width: 0px; background-color: rgb(255, 255, 255); text-decoration-thickness: initial; text-decoration-style: initial; text-decoration-color: initial; float: none; display: inline !important;&quot;&gt;pc_sel&lt;/span&gt;" style="text;whiteSpace=wrap;html=1;align=center;verticalAlign=middle;fontFamily=Courier New;" parent="1" vertex="1">
          <mxGeometry x="125" y="100" width="50" height="20" as="geometry" />
        </mxCell>
        <mxCell id="uOhwQ_3bFJszyhU1PJdD-3" value="&lt;span style=&quot;color: rgb(0, 0, 0); font-size: 10px; font-style: normal; font-variant-ligatures: normal; font-variant-caps: normal; font-weight: 400; letter-spacing: normal; orphans: 2; text-indent: 0px; text-transform: none; widows: 2; word-spacing: 0px; -webkit-text-stroke-width: 0px; background-color: rgb(255, 255, 255); text-decoration-thickness: initial; text-decoration-style: initial; text-decoration-color: initial; float: none; display: inline !important;&quot;&gt;pc_target&lt;/span&gt;" style="text;whiteSpace=wrap;html=1;align=center;verticalAlign=middle;fontFamily=Courier New;" parent="1" vertex="1">
          <mxGeometry x="50" y="430" width="50" height="20" as="geometry" />
        </mxCell>
        <mxCell id="uOhwQ_3bFJszyhU1PJdD-4" value="&lt;span style=&quot;color: rgb(0, 0, 0); font-size: 10px; font-style: normal; font-variant-ligatures: normal; font-variant-caps: normal; font-weight: 400; letter-spacing: normal; orphans: 2; text-indent: 0px; text-transform: none; widows: 2; word-spacing: 0px; -webkit-text-stroke-width: 0px; background-color: rgb(255, 255, 255); text-decoration-thickness: initial; text-decoration-style: initial; text-decoration-color: initial; float: none; display: inline !important;&quot;&gt;0&lt;/span&gt;" style="text;whiteSpace=wrap;html=1;align=center;verticalAlign=middle;fontFamily=Courier New;" parent="1" vertex="1">
          <mxGeometry x="140" y="420" width="10" height="20" as="geometry" />
        </mxCell>
        <mxCell id="uOhwQ_3bFJszyhU1PJdD-5" value="&lt;span style=&quot;color: rgb(0, 0, 0); font-size: 10px; font-style: normal; font-variant-ligatures: normal; font-variant-caps: normal; font-weight: 400; letter-spacing: normal; orphans: 2; text-indent: 0px; text-transform: none; widows: 2; word-spacing: 0px; -webkit-text-stroke-width: 0px; background-color: rgb(255, 255, 255); text-decoration-thickness: initial; text-decoration-style: initial; text-decoration-color: initial; float: none; display: inline !important;&quot;&gt;1&lt;/span&gt;" style="text;whiteSpace=wrap;html=1;align=center;verticalAlign=middle;fontFamily=Courier New;" parent="1" vertex="1">
          <mxGeometry x="140" y="440" width="10" height="20" as="geometry" />
        </mxCell>
        <mxCell id="uOhwQ_3bFJszyhU1PJdD-6" value="&lt;span style=&quot;color: rgb(0, 0, 0); font-size: 10px; font-style: normal; font-variant-ligatures: normal; font-variant-caps: normal; font-weight: 400; letter-spacing: normal; orphans: 2; text-indent: 0px; text-transform: none; widows: 2; word-spacing: 0px; -webkit-text-stroke-width: 0px; background-color: rgb(255, 255, 255); text-decoration-thickness: initial; text-decoration-style: initial; text-decoration-color: initial; float: none; display: inline !important;&quot;&gt;pc&lt;/span&gt;" style="text;whiteSpace=wrap;html=1;align=center;verticalAlign=middle;fontFamily=Courier New;" parent="1" vertex="1">
          <mxGeometry x="320" y="420" width="40" height="20" as="geometry" />
        </mxCell>
        <mxCell id="uOhwQ_3bFJszyhU1PJdD-8" value="&lt;span style=&quot;color: rgb(0, 0, 0); font-size: 10px; font-style: normal; font-variant-ligatures: normal; font-variant-caps: normal; font-weight: 400; letter-spacing: normal; orphans: 2; text-indent: 0px; text-transform: none; widows: 2; word-spacing: 0px; -webkit-text-stroke-width: 0px; background-color: rgb(255, 255, 255); text-decoration-thickness: initial; text-decoration-style: initial; text-decoration-color: initial; float: none; display: inline !important;&quot;&gt;pc_p4&lt;/span&gt;" style="text;whiteSpace=wrap;html=1;align=center;verticalAlign=middle;fontFamily=Courier New;" parent="1" vertex="1">
          <mxGeometry x="320" y="780" width="40" height="20" as="geometry" />
        </mxCell>
        <mxCell id="uOhwQ_3bFJszyhU1PJdD-26" style="edgeStyle=orthogonalEdgeStyle;rounded=0;orthogonalLoop=1;jettySize=auto;html=1;exitX=1;exitY=0.5;exitDx=0;exitDy=0;strokeWidth=2;fontFamily=Courier New;" parent="1" source="uOhwQ_3bFJszyhU1PJdD-10" edge="1">
          <mxGeometry relative="1" as="geometry">
            <mxPoint x="560" y="440" as="targetPoint" />
            <Array as="points">
              <mxPoint x="530" y="440" />
              <mxPoint x="530" y="440" />
            </Array>
          </mxGeometry>
        </mxCell>
        <mxCell id="uOhwQ_3bFJszyhU1PJdD-16" value="&lt;span style=&quot;color: rgb(0, 0, 0); font-size: 10px; font-style: normal; font-variant-ligatures: normal; font-variant-caps: normal; font-weight: 400; letter-spacing: normal; orphans: 2; text-indent: 0px; text-transform: none; widows: 2; word-spacing: 0px; -webkit-text-stroke-width: 0px; background-color: rgb(255, 255, 255); text-decoration-thickness: initial; text-decoration-style: initial; text-decoration-color: initial; float: none; display: inline !important;&quot;&gt;instr_D&lt;/span&gt;" style="text;whiteSpace=wrap;html=1;align=center;verticalAlign=middle;fontFamily=Courier New;" parent="1" vertex="1">
          <mxGeometry x="480" y="460" width="40" height="20" as="geometry" />
        </mxCell>
        <mxCell id="uOhwQ_3bFJszyhU1PJdD-17" value="" style="shape=curlyBracket;whiteSpace=wrap;html=1;rounded=1;labelPosition=left;verticalLabelPosition=middle;align=right;verticalAlign=middle;direction=north;fontFamily=Courier New;" parent="1" vertex="1">
          <mxGeometry x="40" y="900" width="400" height="20" as="geometry" />
        </mxCell>
        <mxCell id="uOhwQ_3bFJszyhU1PJdD-20" value="&lt;span style=&quot;color: rgb(0, 0, 0); font-size: 10px; font-style: normal; font-variant-ligatures: normal; font-variant-caps: normal; font-weight: 400; letter-spacing: normal; orphans: 2; text-indent: 0px; text-transform: none; widows: 2; word-spacing: 0px; -webkit-text-stroke-width: 0px; background-color: rgb(255, 255, 255); text-decoration-thickness: initial; text-decoration-style: initial; text-decoration-color: initial; float: none; display: inline !important;&quot;&gt;FETCH&lt;/span&gt;" style="text;whiteSpace=wrap;html=1;align=center;verticalAlign=middle;fontFamily=Courier New;" parent="1" vertex="1">
          <mxGeometry x="210" y="920" width="60" height="20" as="geometry" />
        </mxCell>
        <mxCell id="uOhwQ_3bFJszyhU1PJdD-21" value="" style="endArrow=none;dashed=1;html=1;strokeWidth=2;rounded=0;strokeColor=#7EA6E0;fontFamily=Courier New;" parent="1" edge="1">
          <mxGeometry width="50" height="50" relative="1" as="geometry">
            <mxPoint x="440" y="840" as="sourcePoint" />
            <mxPoint x="440" y="-480" as="targetPoint" />
          </mxGeometry>
        </mxCell>
        <mxCell id="uOhwQ_3bFJszyhU1PJdD-25" value="" style="endArrow=none;dashed=1;html=1;strokeWidth=2;rounded=0;strokeColor=#7EA6E0;fontFamily=Courier New;" parent="1" edge="1">
          <mxGeometry width="50" height="50" relative="1" as="geometry">
            <mxPoint x="760" y="840" as="sourcePoint" />
            <mxPoint x="760" y="-480" as="targetPoint" />
          </mxGeometry>
        </mxCell>
        <mxCell id="uOhwQ_3bFJszyhU1PJdD-33" value="" style="rounded=0;orthogonalLoop=1;jettySize=auto;html=1;exitX=1;exitY=0.5;exitDx=0;exitDy=0;entryX=0.25;entryY=1;entryDx=0;entryDy=0;strokeWidth=2;fontFamily=Courier New;" parent="1" source="uOhwQ_3bFJszyhU1PJdD-29" target="Xh0cIQ-4y86dnE4VFCaW-29" edge="1">
          <mxGeometry relative="1" as="geometry" />
        </mxCell>
        <mxCell id="uOhwQ_3bFJszyhU1PJdD-31" value="" style="shape=curlyBracket;whiteSpace=wrap;html=1;rounded=1;labelPosition=left;verticalLabelPosition=middle;align=right;verticalAlign=middle;direction=north;fontFamily=Courier New;" parent="1" vertex="1">
          <mxGeometry x="440" y="900" width="320" height="20" as="geometry" />
        </mxCell>
        <mxCell id="uOhwQ_3bFJszyhU1PJdD-32" value="&lt;span style=&quot;color: rgb(0, 0, 0); font-size: 10px; font-style: normal; font-variant-ligatures: normal; font-variant-caps: normal; font-weight: 400; letter-spacing: normal; orphans: 2; text-indent: 0px; text-transform: none; widows: 2; word-spacing: 0px; -webkit-text-stroke-width: 0px; background-color: rgb(255, 255, 255); text-decoration-thickness: initial; text-decoration-style: initial; text-decoration-color: initial; float: none; display: inline !important;&quot;&gt;DECODE&lt;/span&gt;" style="text;whiteSpace=wrap;html=1;align=center;verticalAlign=middle;fontFamily=Courier New;" parent="1" vertex="1">
          <mxGeometry x="570" y="920" width="60" height="20" as="geometry" />
        </mxCell>
        <mxCell id="uOhwQ_3bFJszyhU1PJdD-40" value="" style="endArrow=none;dashed=1;html=1;strokeWidth=2;rounded=0;strokeColor=#7EA6E0;fontFamily=Courier New;" parent="1" edge="1">
          <mxGeometry width="50" height="50" relative="1" as="geometry">
            <mxPoint x="40" y="800" as="sourcePoint" />
            <mxPoint x="40" y="-480" as="targetPoint" />
          </mxGeometry>
        </mxCell>
        <mxCell id="uOhwQ_3bFJszyhU1PJdD-41" value="" style="endArrow=none;dashed=1;html=1;strokeWidth=2;rounded=0;strokeColor=#7EA6E0;fontFamily=Courier New;" parent="1" edge="1">
          <mxGeometry width="50" height="50" relative="1" as="geometry">
            <mxPoint x="1040" y="840" as="sourcePoint" />
            <mxPoint x="1040" y="-480" as="targetPoint" />
          </mxGeometry>
        </mxCell>
        <mxCell id="uOhwQ_3bFJszyhU1PJdD-42" value="" style="shape=curlyBracket;whiteSpace=wrap;html=1;rounded=1;labelPosition=left;verticalLabelPosition=middle;align=right;verticalAlign=middle;direction=north;fontFamily=Courier New;" parent="1" vertex="1">
          <mxGeometry x="760" y="900" width="280" height="20" as="geometry" />
        </mxCell>
        <mxCell id="uOhwQ_3bFJszyhU1PJdD-43" value="&lt;span style=&quot;color: rgb(0, 0, 0); font-size: 10px; font-style: normal; font-variant-ligatures: normal; font-variant-caps: normal; font-weight: 400; letter-spacing: normal; orphans: 2; text-indent: 0px; text-transform: none; widows: 2; word-spacing: 0px; -webkit-text-stroke-width: 0px; background-color: rgb(255, 255, 255); text-decoration-thickness: initial; text-decoration-style: initial; text-decoration-color: initial; float: none; display: inline !important;&quot;&gt;EXECUTE&lt;/span&gt;" style="text;whiteSpace=wrap;html=1;align=center;verticalAlign=middle;fontFamily=Courier New;" parent="1" vertex="1">
          <mxGeometry x="870" y="920" width="60" height="20" as="geometry" />
        </mxCell>
        <mxCell id="uOhwQ_3bFJszyhU1PJdD-45" value="&lt;span style=&quot;color: rgb(0, 0, 0); font-size: 10px; font-style: normal; font-variant-ligatures: normal; font-variant-caps: normal; font-weight: 400; letter-spacing: normal; orphans: 2; text-indent: 0px; text-transform: none; widows: 2; word-spacing: 0px; -webkit-text-stroke-width: 0px; background-color: rgb(255, 255, 255); text-decoration-thickness: initial; text-decoration-style: initial; text-decoration-color: initial; float: none; display: inline !important;&quot;&gt;zero&lt;/span&gt;" style="text;whiteSpace=wrap;html=1;align=center;verticalAlign=middle;fontSize=10;fontFamily=Courier New;" parent="1" vertex="1">
          <mxGeometry x="960" y="-330" width="30" height="20" as="geometry" />
        </mxCell>
        <mxCell id="uOhwQ_3bFJszyhU1PJdD-46" value="&lt;span style=&quot;color: rgb(0, 0, 0); font-size: 10px; font-style: normal; font-variant-ligatures: normal; font-variant-caps: normal; font-weight: 400; letter-spacing: normal; orphans: 2; text-indent: 0px; text-transform: none; widows: 2; word-spacing: 0px; -webkit-text-stroke-width: 0px; background-color: rgb(255, 255, 255); text-decoration-thickness: initial; text-decoration-style: initial; text-decoration-color: initial; float: none; display: inline !important;&quot;&gt;op&lt;/span&gt;" style="text;whiteSpace=wrap;html=1;align=center;verticalAlign=middle;fontSize=10;fontFamily=Courier New;" parent="1" vertex="1">
          <mxGeometry x="570" y="-20" width="20" height="20" as="geometry" />
        </mxCell>
        <mxCell id="uOhwQ_3bFJszyhU1PJdD-47" value="&lt;span style=&quot;color: rgb(0, 0, 0); font-size: 10px; font-style: normal; font-variant-ligatures: normal; font-variant-caps: normal; font-weight: 400; letter-spacing: normal; orphans: 2; text-indent: 0px; text-transform: none; widows: 2; word-spacing: 0px; -webkit-text-stroke-width: 0px; background-color: rgb(255, 255, 255); text-decoration-thickness: initial; text-decoration-style: initial; text-decoration-color: initial; float: none; display: inline !important;&quot;&gt;f3&lt;/span&gt;" style="text;whiteSpace=wrap;html=1;align=center;verticalAlign=middle;fontSize=10;fontFamily=Courier New;" parent="1" vertex="1">
          <mxGeometry x="590" y="-20" width="20" height="20" as="geometry" />
        </mxCell>
        <mxCell id="uOhwQ_3bFJszyhU1PJdD-48" value="&lt;span style=&quot;color: rgb(0, 0, 0); font-size: 10px; font-style: normal; font-variant-ligatures: normal; font-variant-caps: normal; font-weight: 400; letter-spacing: normal; orphans: 2; text-indent: 0px; text-transform: none; widows: 2; word-spacing: 0px; -webkit-text-stroke-width: 0px; background-color: rgb(255, 255, 255); text-decoration-thickness: initial; text-decoration-style: initial; text-decoration-color: initial; float: none; display: inline !important;&quot;&gt;f7&lt;/span&gt;" style="text;whiteSpace=wrap;html=1;verticalAlign=middle;align=center;fontSize=10;fontFamily=Courier New;" parent="1" vertex="1">
          <mxGeometry x="610" y="-20" width="20" height="20" as="geometry" />
        </mxCell>
        <mxCell id="uOhwQ_3bFJszyhU1PJdD-50" value="" style="shape=curlyBracket;whiteSpace=wrap;html=1;rounded=1;labelPosition=left;verticalLabelPosition=middle;align=right;verticalAlign=middle;direction=north;fontFamily=Courier New;" parent="1" vertex="1">
          <mxGeometry x="1040" y="900" width="280" height="20" as="geometry" />
        </mxCell>
        <mxCell id="uOhwQ_3bFJszyhU1PJdD-51" value="&lt;span style=&quot;color: rgb(0, 0, 0); font-size: 10px; font-style: normal; font-variant-ligatures: normal; font-variant-caps: normal; font-weight: 400; letter-spacing: normal; orphans: 2; text-indent: 0px; text-transform: none; widows: 2; word-spacing: 0px; -webkit-text-stroke-width: 0px; background-color: rgb(255, 255, 255); text-decoration-thickness: initial; text-decoration-style: initial; text-decoration-color: initial; float: none; display: inline !important;&quot;&gt;MEM&lt;/span&gt;" style="text;whiteSpace=wrap;html=1;align=center;verticalAlign=middle;fontFamily=Courier New;" parent="1" vertex="1">
          <mxGeometry x="1150" y="920" width="60" height="20" as="geometry" />
        </mxCell>
        <mxCell id="uOhwQ_3bFJszyhU1PJdD-52" value="result_sel" style="text;whiteSpace=wrap;html=1;verticalAlign=middle;align=center;fontSize=10;fontFamily=Courier New;" parent="1" vertex="1">
          <mxGeometry x="1430" y="100" width="60" height="20" as="geometry" />
        </mxCell>
        <mxCell id="uOhwQ_3bFJszyhU1PJdD-54" value="&lt;span style=&quot;color: rgb(0, 0, 0); font-size: 10px; font-style: normal; font-variant-ligatures: normal; font-variant-caps: normal; font-weight: 400; letter-spacing: normal; orphans: 2; text-indent: 0px; text-transform: none; widows: 2; word-spacing: 0px; -webkit-text-stroke-width: 0px; background-color: rgb(255, 255, 255); text-decoration-thickness: initial; text-decoration-style: initial; text-decoration-color: initial; float: none; display: inline !important;&quot;&gt;0&lt;/span&gt;" style="text;whiteSpace=wrap;html=1;align=center;verticalAlign=middle;fontFamily=Courier New;" parent="1" vertex="1">
          <mxGeometry x="1450" y="390" width="10" height="20" as="geometry" />
        </mxCell>
        <mxCell id="uOhwQ_3bFJszyhU1PJdD-55" value="&lt;span style=&quot;color: rgb(0, 0, 0); font-size: 10px; font-style: normal; font-variant-ligatures: normal; font-variant-caps: normal; font-weight: 400; letter-spacing: normal; orphans: 2; text-indent: 0px; text-transform: none; widows: 2; word-spacing: 0px; -webkit-text-stroke-width: 0px; background-color: rgb(255, 255, 255); text-decoration-thickness: initial; text-decoration-style: initial; text-decoration-color: initial; float: none; display: inline !important;&quot;&gt;1&lt;/span&gt;" style="text;whiteSpace=wrap;html=1;align=center;verticalAlign=middle;fontFamily=Courier New;" parent="1" vertex="1">
          <mxGeometry x="1450" y="430" width="10" height="20" as="geometry" />
        </mxCell>
        <mxCell id="uOhwQ_3bFJszyhU1PJdD-56" value="&lt;span style=&quot;color: rgb(0, 0, 0); font-size: 10px; font-style: normal; font-variant-ligatures: normal; font-variant-caps: normal; font-weight: 400; letter-spacing: normal; orphans: 2; text-indent: 0px; text-transform: none; widows: 2; word-spacing: 0px; -webkit-text-stroke-width: 0px; background-color: rgb(255, 255, 255); text-decoration-thickness: initial; text-decoration-style: initial; text-decoration-color: initial; float: none; display: inline !important;&quot;&gt;2&lt;/span&gt;" style="text;whiteSpace=wrap;html=1;align=center;verticalAlign=middle;fontFamily=Courier New;" parent="1" vertex="1">
          <mxGeometry x="1450" y="470" width="10" height="20" as="geometry" />
        </mxCell>
        <mxCell id="uOhwQ_3bFJszyhU1PJdD-60" style="edgeStyle=orthogonalEdgeStyle;rounded=0;orthogonalLoop=1;jettySize=auto;html=1;exitX=1;exitY=0.5;exitDx=0;exitDy=0;entryX=0;entryY=0.5;entryDx=0;entryDy=0;fontFamily=Courier New;" parent="1" source="uOhwQ_3bFJszyhU1PJdD-58" target="uOhwQ_3bFJszyhU1PJdD-55" edge="1">
          <mxGeometry relative="1" as="geometry" />
        </mxCell>
        <mxCell id="uOhwQ_3bFJszyhU1PJdD-61" value="" style="endArrow=none;dashed=1;html=1;strokeWidth=2;rounded=0;strokeColor=#7EA6E0;fontFamily=Courier New;" parent="1" edge="1">
          <mxGeometry width="50" height="50" relative="1" as="geometry">
            <mxPoint x="1319" y="840" as="sourcePoint" />
            <mxPoint x="1319" y="-480" as="targetPoint" />
          </mxGeometry>
        </mxCell>
        <mxCell id="uOhwQ_3bFJszyhU1PJdD-62" value="mem_we" style="text;whiteSpace=wrap;html=1;verticalAlign=middle;align=center;fontSize=10;fontFamily=Courier New;" parent="1" vertex="1">
          <mxGeometry x="1229" y="100" width="60" height="20" as="geometry" />
        </mxCell>
        <mxCell id="uOhwQ_3bFJszyhU1PJdD-63" value="" style="endArrow=none;dashed=1;html=1;strokeWidth=2;rounded=0;strokeColor=#7EA6E0;fontFamily=Courier New;" parent="1" edge="1">
          <mxGeometry width="50" height="50" relative="1" as="geometry">
            <mxPoint x="1520" y="840" as="sourcePoint" />
            <mxPoint x="1520" y="-480" as="targetPoint" />
          </mxGeometry>
        </mxCell>
        <mxCell id="uOhwQ_3bFJszyhU1PJdD-64" value="" style="shape=curlyBracket;whiteSpace=wrap;html=1;rounded=1;labelPosition=left;verticalLabelPosition=middle;align=right;verticalAlign=middle;direction=north;fontFamily=Courier New;" parent="1" vertex="1">
          <mxGeometry x="1320" y="900" width="200" height="20" as="geometry" />
        </mxCell>
        <mxCell id="uOhwQ_3bFJszyhU1PJdD-65" value="&lt;span style=&quot;color: rgb(0, 0, 0); font-size: 10px; font-style: normal; font-variant-ligatures: normal; font-variant-caps: normal; font-weight: 400; letter-spacing: normal; orphans: 2; text-indent: 0px; text-transform: none; widows: 2; word-spacing: 0px; -webkit-text-stroke-width: 0px; background-color: rgb(255, 255, 255); text-decoration-thickness: initial; text-decoration-style: initial; text-decoration-color: initial; float: none; display: inline !important;&quot;&gt;WB&lt;/span&gt;" style="text;whiteSpace=wrap;html=1;align=center;verticalAlign=middle;fontFamily=Courier New;" parent="1" vertex="1">
          <mxGeometry x="1390" y="920" width="60" height="20" as="geometry" />
        </mxCell>
        <mxCell id="uOhwQ_3bFJszyhU1PJdD-69" value="" style="group;fontFamily=Courier New;" parent="1" vertex="1" connectable="0">
          <mxGeometry x="800" y="640" width="40" height="40" as="geometry" />
        </mxCell>
        <mxCell id="uOhwQ_3bFJszyhU1PJdD-70" value="" style="rounded=0;whiteSpace=wrap;html=1;fillColor=#dae8fc;strokeColor=#6c8ebf;fontStyle=1;fontSize=10;fontFamily=Courier New;" parent="uOhwQ_3bFJszyhU1PJdD-69" vertex="1">
          <mxGeometry width="40" height="40" as="geometry" />
        </mxCell>
        <mxCell id="uOhwQ_3bFJszyhU1PJdD-71" value="" style="triangle;whiteSpace=wrap;html=1;direction=south;fontSize=10;fontFamily=Courier New;" parent="uOhwQ_3bFJszyhU1PJdD-69" vertex="1">
          <mxGeometry x="10" width="20" height="10" as="geometry" />
        </mxCell>
        <mxCell id="uOhwQ_3bFJszyhU1PJdD-73" value="" style="group;fontFamily=Courier New;" parent="1" vertex="1" connectable="0">
          <mxGeometry x="800" y="700" width="40" height="40" as="geometry" />
        </mxCell>
        <mxCell id="uOhwQ_3bFJszyhU1PJdD-74" value="" style="rounded=0;whiteSpace=wrap;html=1;fillColor=#dae8fc;strokeColor=#6c8ebf;fontStyle=1;fontSize=10;fontFamily=Courier New;" parent="uOhwQ_3bFJszyhU1PJdD-73" vertex="1">
          <mxGeometry width="40" height="40" as="geometry" />
        </mxCell>
        <mxCell id="uOhwQ_3bFJszyhU1PJdD-75" value="" style="triangle;whiteSpace=wrap;html=1;direction=south;fontSize=10;fontFamily=Courier New;" parent="uOhwQ_3bFJszyhU1PJdD-73" vertex="1">
          <mxGeometry x="10" width="20" height="10" as="geometry" />
        </mxCell>
        <mxCell id="uOhwQ_3bFJszyhU1PJdD-77" value="" style="group;fontFamily=Courier New;" parent="1" vertex="1" connectable="0">
          <mxGeometry x="480" y="640" width="40" height="40" as="geometry" />
        </mxCell>
        <mxCell id="uOhwQ_3bFJszyhU1PJdD-78" value="" style="rounded=0;whiteSpace=wrap;html=1;fillColor=#dae8fc;strokeColor=#6c8ebf;fontStyle=1;fontSize=10;fontFamily=Courier New;" parent="uOhwQ_3bFJszyhU1PJdD-77" vertex="1">
          <mxGeometry width="40" height="40" as="geometry" />
        </mxCell>
        <mxCell id="uOhwQ_3bFJszyhU1PJdD-79" value="" style="triangle;whiteSpace=wrap;html=1;direction=south;fontSize=10;fontFamily=Courier New;" parent="uOhwQ_3bFJszyhU1PJdD-77" vertex="1">
          <mxGeometry x="10" width="20" height="10" as="geometry" />
        </mxCell>
        <mxCell id="uOhwQ_3bFJszyhU1PJdD-80" style="edgeStyle=orthogonalEdgeStyle;rounded=0;orthogonalLoop=1;jettySize=auto;html=1;exitX=1;exitY=0.5;exitDx=0;exitDy=0;entryX=0;entryY=0.5;entryDx=0;entryDy=0;strokeWidth=2;fontFamily=Courier New;" parent="1" edge="1">
          <mxGeometry relative="1" as="geometry">
            <mxPoint x="520" y="660" as="sourcePoint" />
            <mxPoint x="800" y="660" as="targetPoint" />
          </mxGeometry>
        </mxCell>
        <mxCell id="uOhwQ_3bFJszyhU1PJdD-81" value="" style="group;fontFamily=Courier New;" parent="1" vertex="1" connectable="0">
          <mxGeometry x="480" y="420" width="40" height="40" as="geometry" />
        </mxCell>
        <mxCell id="uOhwQ_3bFJszyhU1PJdD-10" value="" style="rounded=0;whiteSpace=wrap;html=1;fillColor=#dae8fc;strokeColor=#6c8ebf;fontStyle=1;fontSize=10;fontFamily=Courier New;" parent="uOhwQ_3bFJszyhU1PJdD-81" vertex="1">
          <mxGeometry width="40" height="40" as="geometry" />
        </mxCell>
        <mxCell id="uOhwQ_3bFJszyhU1PJdD-11" value="" style="triangle;whiteSpace=wrap;html=1;direction=south;fontSize=10;fontFamily=Courier New;" parent="uOhwQ_3bFJszyhU1PJdD-81" vertex="1">
          <mxGeometry x="10" width="20" height="10" as="geometry" />
        </mxCell>
        <mxCell id="uOhwQ_3bFJszyhU1PJdD-82" value="" style="group;fontFamily=Courier New;" parent="1" vertex="1" connectable="0">
          <mxGeometry x="800" y="360" width="40" height="40" as="geometry" />
        </mxCell>
        <mxCell id="uOhwQ_3bFJszyhU1PJdD-27" value="" style="rounded=0;whiteSpace=wrap;html=1;fillColor=#dae8fc;strokeColor=#6c8ebf;fontStyle=1;fontSize=10;fontFamily=Courier New;" parent="uOhwQ_3bFJszyhU1PJdD-82" vertex="1">
          <mxGeometry width="40" height="40" as="geometry" />
        </mxCell>
        <mxCell id="uOhwQ_3bFJszyhU1PJdD-28" value="" style="triangle;whiteSpace=wrap;html=1;direction=south;fontSize=10;fontFamily=Courier New;" parent="uOhwQ_3bFJszyhU1PJdD-82" vertex="1">
          <mxGeometry x="10" width="20" height="10" as="geometry" />
        </mxCell>
        <mxCell id="uOhwQ_3bFJszyhU1PJdD-83" value="" style="group;fontFamily=Courier New;" parent="1" vertex="1" connectable="0">
          <mxGeometry x="800" y="440" width="40" height="40" as="geometry" />
        </mxCell>
        <mxCell id="uOhwQ_3bFJszyhU1PJdD-29" value="" style="rounded=0;whiteSpace=wrap;html=1;fillColor=#dae8fc;strokeColor=#6c8ebf;fontStyle=1;fontSize=10;fontFamily=Courier New;" parent="uOhwQ_3bFJszyhU1PJdD-83" vertex="1">
          <mxGeometry width="40" height="40" as="geometry" />
        </mxCell>
        <mxCell id="uOhwQ_3bFJszyhU1PJdD-30" value="" style="triangle;whiteSpace=wrap;html=1;direction=south;fontSize=10;fontFamily=Courier New;" parent="uOhwQ_3bFJszyhU1PJdD-83" vertex="1">
          <mxGeometry x="10" width="20" height="10" as="geometry" />
        </mxCell>
        <mxCell id="uOhwQ_3bFJszyhU1PJdD-84" value="" style="group;fontFamily=Courier New;" parent="1" vertex="1" connectable="0">
          <mxGeometry x="1080" y="420" width="40" height="40" as="geometry" />
        </mxCell>
        <mxCell id="uOhwQ_3bFJszyhU1PJdD-37" value="" style="rounded=0;whiteSpace=wrap;html=1;fillColor=#dae8fc;strokeColor=#6c8ebf;fontStyle=1;fontSize=10;fontFamily=Courier New;" parent="uOhwQ_3bFJszyhU1PJdD-84" vertex="1">
          <mxGeometry width="40" height="40" as="geometry" />
        </mxCell>
        <mxCell id="uOhwQ_3bFJszyhU1PJdD-38" value="" style="triangle;whiteSpace=wrap;html=1;direction=south;fontSize=10;fontFamily=Courier New;" parent="uOhwQ_3bFJszyhU1PJdD-84" vertex="1">
          <mxGeometry x="10" width="20" height="10" as="geometry" />
        </mxCell>
        <mxCell id="uOhwQ_3bFJszyhU1PJdD-85" value="alu_res_M" style="text;whiteSpace=wrap;html=1;verticalAlign=middle;align=center;fontFamily=Courier New;" parent="1" vertex="1">
          <mxGeometry x="1070" y="460" width="60" height="20" as="geometry" />
        </mxCell>
        <mxCell id="uOhwQ_3bFJszyhU1PJdD-86" value="imm" style="edgeStyle=orthogonalEdgeStyle;rounded=0;orthogonalLoop=1;jettySize=auto;html=1;exitX=1;exitY=0.5;exitDx=0;exitDy=0;entryX=0.75;entryY=1;entryDx=0;entryDy=0;strokeWidth=2;fontFamily=Courier New;" parent="1" source="uOhwQ_3bFJszyhU1PJdD-74" target="Xh0cIQ-4y86dnE4VFCaW-29" edge="1">
          <mxGeometry relative="1" as="geometry">
            <Array as="points">
              <mxPoint x="880" y="720" />
              <mxPoint x="880" y="480" />
            </Array>
          </mxGeometry>
        </mxCell>
        <mxCell id="uOhwQ_3bFJszyhU1PJdD-89" value="&lt;span style=&quot;color: rgb(0, 0, 0); font-size: 10px; font-style: normal; font-variant-ligatures: normal; font-variant-caps: normal; font-weight: 400; letter-spacing: normal; orphans: 2; text-indent: 0px; text-transform: none; widows: 2; word-spacing: 0px; -webkit-text-stroke-width: 0px; background-color: rgb(255, 255, 255); text-decoration-thickness: initial; text-decoration-style: initial; text-decoration-color: initial; float: none; display: inline !important;&quot;&gt;0&lt;/span&gt;" style="text;whiteSpace=wrap;html=1;align=center;verticalAlign=middle;fontFamily=Courier New;" parent="1" vertex="1">
          <mxGeometry x="920" y="450" width="10" height="20" as="geometry" />
        </mxCell>
        <mxCell id="uOhwQ_3bFJszyhU1PJdD-90" value="&lt;span style=&quot;color: rgb(0, 0, 0); font-size: 10px; font-style: normal; font-variant-ligatures: normal; font-variant-caps: normal; font-weight: 400; letter-spacing: normal; orphans: 2; text-indent: 0px; text-transform: none; widows: 2; word-spacing: 0px; -webkit-text-stroke-width: 0px; background-color: rgb(255, 255, 255); text-decoration-thickness: initial; text-decoration-style: initial; text-decoration-color: initial; float: none; display: inline !important;&quot;&gt;1&lt;/span&gt;" style="text;whiteSpace=wrap;html=1;align=center;verticalAlign=middle;fontFamily=Courier New;" parent="1" vertex="1">
          <mxGeometry x="920" y="470" width="10" height="20" as="geometry" />
        </mxCell>
        <mxCell id="uOhwQ_3bFJszyhU1PJdD-99" value="" style="group;fontFamily=Courier New;" parent="1" vertex="1" connectable="0">
          <mxGeometry x="2520" y="1000" width="40" height="40" as="geometry" />
        </mxCell>
        <mxCell id="uOhwQ_3bFJszyhU1PJdD-100" value="" style="rounded=0;whiteSpace=wrap;html=1;fillColor=#dae8fc;strokeColor=#6c8ebf;fontStyle=1;fontSize=10;fontFamily=Courier New;" parent="uOhwQ_3bFJszyhU1PJdD-99" vertex="1">
          <mxGeometry width="40" height="40" as="geometry" />
        </mxCell>
        <mxCell id="uOhwQ_3bFJszyhU1PJdD-101" value="" style="triangle;whiteSpace=wrap;html=1;direction=south;fontSize=10;fontFamily=Courier New;" parent="uOhwQ_3bFJszyhU1PJdD-99" vertex="1">
          <mxGeometry x="10" width="20" height="10" as="geometry" />
        </mxCell>
        <mxCell id="uOhwQ_3bFJszyhU1PJdD-103" value="&lt;span style=&quot;color: rgb(0, 0, 0); font-size: 10px; font-style: normal; font-variant-ligatures: normal; font-variant-caps: normal; font-weight: 400; letter-spacing: normal; orphans: 2; text-indent: 0px; text-transform: none; widows: 2; word-spacing: 0px; -webkit-text-stroke-width: 0px; background-color: rgb(255, 255, 255); text-decoration-thickness: initial; text-decoration-style: initial; text-decoration-color: initial; float: none; display: inline !important;&quot;&gt;NONE ARCHTECTURE REGISTER&lt;/span&gt;" style="text;whiteSpace=wrap;html=1;align=left;verticalAlign=middle;fontFamily=Courier New;" parent="1" vertex="1">
          <mxGeometry x="2580" y="1010" width="190" height="20" as="geometry" />
        </mxCell>
        <mxCell id="uOhwQ_3bFJszyhU1PJdD-104" value="" style="group;fontFamily=Courier New;fillColor=#fff2cc;strokeColor=#d6b656;container=0;" parent="1" vertex="1" connectable="0">
          <mxGeometry x="2520" y="1080" width="40" height="40" as="geometry" />
        </mxCell>
        <mxCell id="uOhwQ_3bFJszyhU1PJdD-105" value="" style="rounded=0;whiteSpace=wrap;html=1;fillColor=#fff2cc;strokeColor=#d6b656;fontStyle=1;fontSize=10;fontFamily=Courier New;" parent="1" vertex="1">
          <mxGeometry x="2520" y="1080" width="40" height="40" as="geometry" />
        </mxCell>
        <mxCell id="uOhwQ_3bFJszyhU1PJdD-106" value="" style="triangle;whiteSpace=wrap;html=1;direction=south;fontSize=10;fontFamily=Courier New;" parent="1" vertex="1">
          <mxGeometry x="2530" y="1080" width="20" height="10" as="geometry" />
        </mxCell>
        <mxCell id="uOhwQ_3bFJszyhU1PJdD-107" value="&lt;span style=&quot;color: rgb(0, 0, 0); font-size: 10px; font-style: normal; font-variant-ligatures: normal; font-variant-caps: normal; font-weight: 400; letter-spacing: normal; orphans: 2; text-indent: 0px; text-transform: none; widows: 2; word-spacing: 0px; -webkit-text-stroke-width: 0px; background-color: rgb(255, 255, 255); text-decoration-thickness: initial; text-decoration-style: initial; text-decoration-color: initial; float: none; display: inline !important;&quot;&gt;ARCHTECTURE REGISTER&lt;/span&gt;" style="text;whiteSpace=wrap;html=1;align=left;verticalAlign=middle;fontFamily=Courier New;" parent="1" vertex="1">
          <mxGeometry x="2580" y="1090" width="190" height="20" as="geometry" />
        </mxCell>
        <mxCell id="uOhwQ_3bFJszyhU1PJdD-108" value="&lt;span style=&quot;font-size: 10px; background-color: rgb(255, 255, 255);&quot;&gt;pc_D&lt;/span&gt;" style="text;whiteSpace=wrap;html=1;align=center;verticalAlign=middle;fontFamily=Courier New;" parent="1" vertex="1">
          <mxGeometry x="480" y="680" width="40" height="20" as="geometry" />
        </mxCell>
        <mxCell id="NXQPdlzBaVOP-Oa7sGbx-41" style="edgeStyle=orthogonalEdgeStyle;rounded=0;orthogonalLoop=1;jettySize=auto;html=1;exitX=1;exitY=0.5;exitDx=0;exitDy=0;fontFamily=Courier New;" parent="1" source="uOhwQ_3bFJszyhU1PJdD-109" target="NXQPdlzBaVOP-Oa7sGbx-38" edge="1">
          <mxGeometry relative="1" as="geometry" />
        </mxCell>
        <mxCell id="uOhwQ_3bFJszyhU1PJdD-109" value="we3" style="text;whiteSpace=wrap;html=1;verticalAlign=middle;align=center;fontSize=10;fontFamily=Courier New;" parent="1" vertex="1">
          <mxGeometry x="640" y="-30" width="40" height="20" as="geometry" />
        </mxCell>
        <mxCell id="uOhwQ_3bFJszyhU1PJdD-110" value="6:0" style="text;whiteSpace=wrap;html=1;align=right;verticalAlign=middle;fontSize=10;fontFamily=Courier New;" parent="1" vertex="1">
          <mxGeometry x="520" y="220" width="40" height="20" as="geometry" />
        </mxCell>
        <mxCell id="uOhwQ_3bFJszyhU1PJdD-111" value="14:12" style="text;whiteSpace=wrap;html=1;align=right;verticalAlign=middle;fontSize=10;fontFamily=Courier New;" parent="1" vertex="1">
          <mxGeometry x="520" y="260" width="40" height="20" as="geometry" />
        </mxCell>
        <mxCell id="uOhwQ_3bFJszyhU1PJdD-112" value="31:25" style="text;whiteSpace=wrap;html=1;align=right;verticalAlign=middle;fontSize=10;fontFamily=Courier New;" parent="1" vertex="1">
          <mxGeometry x="520" y="240" width="40" height="20" as="geometry" />
        </mxCell>
        <mxCell id="uOhwQ_3bFJszyhU1PJdD-113" value="" style="group;fontFamily=Courier New;" parent="1" vertex="1" connectable="0">
          <mxGeometry x="480" y="760" width="40" height="40" as="geometry" />
        </mxCell>
        <mxCell id="uOhwQ_3bFJszyhU1PJdD-114" value="" style="rounded=0;whiteSpace=wrap;html=1;fillColor=#dae8fc;strokeColor=#6c8ebf;fontStyle=1;fontSize=10;fontFamily=Courier New;" parent="uOhwQ_3bFJszyhU1PJdD-113" vertex="1">
          <mxGeometry width="40" height="40" as="geometry" />
        </mxCell>
        <mxCell id="uOhwQ_3bFJszyhU1PJdD-115" value="" style="triangle;whiteSpace=wrap;html=1;direction=south;fontSize=10;fontFamily=Courier New;" parent="uOhwQ_3bFJszyhU1PJdD-113" vertex="1">
          <mxGeometry x="10" width="20" height="10" as="geometry" />
        </mxCell>
        <mxCell id="uOhwQ_3bFJszyhU1PJdD-117" value="&lt;span style=&quot;font-size: 10px; background-color: rgb(255, 255, 255);&quot;&gt;pc_p4_D&lt;/span&gt;" style="text;whiteSpace=wrap;html=1;align=center;verticalAlign=middle;fontFamily=Courier New;" parent="1" vertex="1">
          <mxGeometry x="480" y="800" width="40" height="20" as="geometry" />
        </mxCell>
        <mxCell id="uOhwQ_3bFJszyhU1PJdD-118" value="31:7" style="text;whiteSpace=wrap;html=1;align=right;verticalAlign=middle;fontSize=10;fontFamily=Courier New;" parent="1" vertex="1">
          <mxGeometry x="520" y="710" width="40" height="20" as="geometry" />
        </mxCell>
        <mxCell id="uOhwQ_3bFJszyhU1PJdD-119" value="&lt;span style=&quot;color: rgb(0, 0, 0); font-size: 10px; font-style: normal; font-variant-ligatures: normal; font-variant-caps: normal; font-weight: 400; letter-spacing: normal; orphans: 2; text-indent: 0px; text-transform: none; widows: 2; word-spacing: 0px; -webkit-text-stroke-width: 0px; background-color: rgb(255, 255, 255); text-decoration-thickness: initial; text-decoration-style: initial; text-decoration-color: initial; float: none; display: inline !important;&quot;&gt;a&lt;/span&gt;" style="text;whiteSpace=wrap;html=1;align=center;verticalAlign=middle;fontFamily=Courier New;" parent="1" vertex="1">
          <mxGeometry x="960" y="370" width="10" height="20" as="geometry" />
        </mxCell>
        <mxCell id="uOhwQ_3bFJszyhU1PJdD-121" value="" style="edgeStyle=orthogonalEdgeStyle;rounded=0;orthogonalLoop=1;jettySize=auto;html=1;exitX=0.5;exitY=0;exitDx=0;exitDy=0;entryX=0;entryY=0.5;entryDx=0;entryDy=0;strokeWidth=2;fontSize=10;fontFamily=Courier New;" parent="1" source="Xh0cIQ-4y86dnE4VFCaW-29" target="uOhwQ_3bFJszyhU1PJdD-120" edge="1">
          <mxGeometry relative="1" as="geometry">
            <mxPoint x="930" y="460" as="sourcePoint" />
            <mxPoint x="960" y="450" as="targetPoint" />
            <Array as="points" />
          </mxGeometry>
        </mxCell>
        <mxCell id="uOhwQ_3bFJszyhU1PJdD-120" value="&lt;span style=&quot;color: rgb(0, 0, 0); font-size: 10px; font-style: normal; font-variant-ligatures: normal; font-variant-caps: normal; font-weight: 400; letter-spacing: normal; orphans: 2; text-indent: 0px; text-transform: none; widows: 2; word-spacing: 0px; -webkit-text-stroke-width: 0px; background-color: rgb(255, 255, 255); text-decoration-thickness: initial; text-decoration-style: initial; text-decoration-color: initial; float: none; display: inline !important;&quot;&gt;b&lt;/span&gt;" style="text;whiteSpace=wrap;html=1;align=center;verticalAlign=middle;fontFamily=Courier New;" parent="1" vertex="1">
          <mxGeometry x="960" y="460" width="10" height="20" as="geometry" />
        </mxCell>
        <mxCell id="uOhwQ_3bFJszyhU1PJdD-122" value="&lt;span style=&quot;color: rgb(0, 0, 0); font-size: 10px; font-style: normal; font-variant-ligatures: normal; font-variant-caps: normal; font-weight: 400; letter-spacing: normal; orphans: 2; text-indent: 0px; text-transform: none; widows: 2; word-spacing: 0px; -webkit-text-stroke-width: 0px; background-color: rgb(255, 255, 255); text-decoration-thickness: initial; text-decoration-style: initial; text-decoration-color: initial; float: none; display: inline !important;&quot;&gt;p&lt;/span&gt;" style="text;whiteSpace=wrap;html=1;align=center;verticalAlign=middle;fontFamily=Courier New;" parent="1" vertex="1">
          <mxGeometry x="990" y="430" width="10" height="20" as="geometry" />
        </mxCell>
        <mxCell id="uOhwQ_3bFJszyhU1PJdD-123" value="&lt;span style=&quot;color: rgb(0, 0, 0); font-size: 10px; font-style: normal; font-variant-ligatures: normal; font-variant-caps: normal; font-weight: 400; letter-spacing: normal; orphans: 2; text-indent: 0px; text-transform: none; widows: 2; word-spacing: 0px; -webkit-text-stroke-width: 0px; background-color: rgb(255, 255, 255); text-decoration-thickness: initial; text-decoration-style: initial; text-decoration-color: initial; float: none; display: inline !important;&quot;&gt;rd1_E&lt;/span&gt;" style="text;whiteSpace=wrap;html=1;align=center;verticalAlign=middle;fontFamily=Courier New;" parent="1" vertex="1">
          <mxGeometry x="800" y="400" width="40" height="20" as="geometry" />
        </mxCell>
        <mxCell id="uOhwQ_3bFJszyhU1PJdD-124" value="&lt;span style=&quot;color: rgb(0, 0, 0); font-size: 10px; font-style: normal; font-variant-ligatures: normal; font-variant-caps: normal; font-weight: 400; letter-spacing: normal; orphans: 2; text-indent: 0px; text-transform: none; widows: 2; word-spacing: 0px; -webkit-text-stroke-width: 0px; background-color: rgb(255, 255, 255); text-decoration-thickness: initial; text-decoration-style: initial; text-decoration-color: initial; float: none; display: inline !important;&quot;&gt;rd2_E&lt;/span&gt;" style="text;whiteSpace=wrap;html=1;align=center;verticalAlign=middle;fontFamily=Courier New;" parent="1" vertex="1">
          <mxGeometry x="800" y="480" width="40" height="20" as="geometry" />
        </mxCell>
        <mxCell id="uOhwQ_3bFJszyhU1PJdD-125" value="&lt;span style=&quot;color: rgb(0, 0, 0); font-size: 10px; font-style: normal; font-variant-ligatures: normal; font-variant-caps: normal; font-weight: 400; letter-spacing: normal; orphans: 2; text-indent: 0px; text-transform: none; widows: 2; word-spacing: 0px; -webkit-text-stroke-width: 0px; background-color: rgb(255, 255, 255); text-decoration-thickness: initial; text-decoration-style: initial; text-decoration-color: initial; float: none; display: inline !important;&quot;&gt;imm_E&lt;/span&gt;" style="text;whiteSpace=wrap;html=1;align=center;verticalAlign=middle;fontFamily=Courier New;" parent="1" vertex="1">
          <mxGeometry x="800" y="740" width="40" height="20" as="geometry" />
        </mxCell>
        <mxCell id="uOhwQ_3bFJszyhU1PJdD-126" value="&lt;span style=&quot;color: rgb(0, 0, 0); font-size: 10px; font-style: normal; font-variant-ligatures: normal; font-variant-caps: normal; font-weight: 400; letter-spacing: normal; orphans: 2; text-indent: 0px; text-transform: none; widows: 2; word-spacing: 0px; -webkit-text-stroke-width: 0px; background-color: rgb(255, 255, 255); text-decoration-thickness: initial; text-decoration-style: initial; text-decoration-color: initial; float: none; display: inline !important;&quot;&gt;pc_E&lt;/span&gt;" style="text;whiteSpace=wrap;html=1;align=center;verticalAlign=middle;fontFamily=Courier New;" parent="1" vertex="1">
          <mxGeometry x="800" y="680" width="40" height="20" as="geometry" />
        </mxCell>
        <mxCell id="uOhwQ_3bFJszyhU1PJdD-129" value="mem_W" style="text;whiteSpace=wrap;html=1;verticalAlign=middle;align=center;fontFamily=Courier New;" parent="1" vertex="1">
          <mxGeometry x="1350" y="460" width="60" height="20" as="geometry" />
        </mxCell>
        <mxCell id="uOhwQ_3bFJszyhU1PJdD-130" value="" style="group;fontFamily=Courier New;" parent="1" vertex="1" connectable="0">
          <mxGeometry x="1080" y="480" width="40" height="40" as="geometry" />
        </mxCell>
        <mxCell id="uOhwQ_3bFJszyhU1PJdD-131" value="" style="rounded=0;whiteSpace=wrap;html=1;fillColor=#dae8fc;strokeColor=#6c8ebf;fontStyle=1;fontSize=10;fontFamily=Courier New;" parent="uOhwQ_3bFJszyhU1PJdD-130" vertex="1">
          <mxGeometry width="40" height="40" as="geometry" />
        </mxCell>
        <mxCell id="uOhwQ_3bFJszyhU1PJdD-132" value="" style="triangle;whiteSpace=wrap;html=1;direction=south;fontSize=10;fontFamily=Courier New;" parent="uOhwQ_3bFJszyhU1PJdD-130" vertex="1">
          <mxGeometry x="10" width="20" height="10" as="geometry" />
        </mxCell>
        <mxCell id="uOhwQ_3bFJszyhU1PJdD-133" value="&lt;span style=&quot;color: rgb(0, 0, 0); font-size: 10px; font-style: normal; font-variant-ligatures: normal; font-variant-caps: normal; font-weight: 400; letter-spacing: normal; orphans: 2; text-indent: 0px; text-transform: none; widows: 2; word-spacing: 0px; -webkit-text-stroke-width: 0px; background-color: rgb(255, 255, 255); text-decoration-thickness: initial; text-decoration-style: initial; text-decoration-color: initial; float: none; display: inline !important;&quot;&gt;rd2_M&lt;/span&gt;" style="text;whiteSpace=wrap;html=1;align=center;verticalAlign=middle;fontFamily=Courier New;" parent="1" vertex="1">
          <mxGeometry x="1080" y="520" width="40" height="20" as="geometry" />
        </mxCell>
        <mxCell id="uOhwQ_3bFJszyhU1PJdD-134" style="edgeStyle=orthogonalEdgeStyle;rounded=0;orthogonalLoop=1;jettySize=auto;html=1;exitX=1;exitY=0.5;exitDx=0;exitDy=0;entryX=0;entryY=0.5;entryDx=0;entryDy=0;strokeWidth=2;fontFamily=Courier New;" parent="1" source="uOhwQ_3bFJszyhU1PJdD-131" target="nlMXq3PYJxnYt71wBByD-1" edge="1">
          <mxGeometry relative="1" as="geometry" />
        </mxCell>
        <mxCell id="uOhwQ_3bFJszyhU1PJdD-136" style="edgeStyle=orthogonalEdgeStyle;rounded=0;orthogonalLoop=1;jettySize=auto;html=1;exitX=1;exitY=0.5;exitDx=0;exitDy=0;strokeWidth=2;fontFamily=Courier New;" parent="1" source="uOhwQ_3bFJszyhU1PJdD-29" edge="1">
          <mxGeometry relative="1" as="geometry">
            <mxPoint x="1080" y="500.12121212121224" as="targetPoint" />
            <mxPoint x="1060" y="500" as="sourcePoint" />
            <Array as="points">
              <mxPoint x="890" y="460" />
              <mxPoint x="890" y="500" />
            </Array>
          </mxGeometry>
        </mxCell>
        <mxCell id="uOhwQ_3bFJszyhU1PJdD-141" value="" style="group;fontFamily=Courier New;" parent="1" vertex="1" connectable="0">
          <mxGeometry x="1080" y="760" width="40" height="40" as="geometry" />
        </mxCell>
        <mxCell id="uOhwQ_3bFJszyhU1PJdD-142" value="" style="rounded=0;whiteSpace=wrap;html=1;fillColor=#dae8fc;strokeColor=#6c8ebf;fontStyle=1;fontSize=10;fontFamily=Courier New;" parent="uOhwQ_3bFJszyhU1PJdD-141" vertex="1">
          <mxGeometry width="40" height="40" as="geometry" />
        </mxCell>
        <mxCell id="uOhwQ_3bFJszyhU1PJdD-143" value="" style="triangle;whiteSpace=wrap;html=1;direction=south;fontSize=10;fontFamily=Courier New;" parent="uOhwQ_3bFJszyhU1PJdD-141" vertex="1">
          <mxGeometry x="10" width="20" height="10" as="geometry" />
        </mxCell>
        <mxCell id="uOhwQ_3bFJszyhU1PJdD-144" value="&lt;span style=&quot;font-size: 10px; background-color: rgb(255, 255, 255);&quot;&gt;pc_p4_M&lt;/span&gt;" style="text;whiteSpace=wrap;html=1;align=center;verticalAlign=middle;fontFamily=Courier New;" parent="1" vertex="1">
          <mxGeometry x="1080" y="800" width="40" height="20" as="geometry" />
        </mxCell>
        <mxCell id="uOhwQ_3bFJszyhU1PJdD-146" value="" style="group;fontFamily=Courier New;" parent="1" vertex="1" connectable="0">
          <mxGeometry x="800" y="760" width="40" height="40" as="geometry" />
        </mxCell>
        <mxCell id="uOhwQ_3bFJszyhU1PJdD-147" value="" style="rounded=0;whiteSpace=wrap;html=1;fillColor=#dae8fc;strokeColor=#6c8ebf;fontStyle=1;fontSize=10;fontFamily=Courier New;" parent="uOhwQ_3bFJszyhU1PJdD-146" vertex="1">
          <mxGeometry width="40" height="40" as="geometry" />
        </mxCell>
        <mxCell id="uOhwQ_3bFJszyhU1PJdD-148" value="" style="triangle;whiteSpace=wrap;html=1;direction=south;fontSize=10;fontFamily=Courier New;" parent="uOhwQ_3bFJszyhU1PJdD-146" vertex="1">
          <mxGeometry x="10" width="20" height="10" as="geometry" />
        </mxCell>
        <mxCell id="uOhwQ_3bFJszyhU1PJdD-149" value="&lt;span style=&quot;font-size: 10px; background-color: rgb(255, 255, 255);&quot;&gt;pc_p4_E&lt;/span&gt;" style="text;whiteSpace=wrap;html=1;align=center;verticalAlign=middle;fontFamily=Courier New;" parent="1" vertex="1">
          <mxGeometry x="800" y="800" width="40" height="20" as="geometry" />
        </mxCell>
        <mxCell id="uOhwQ_3bFJszyhU1PJdD-176" value="" style="group;fontFamily=Courier New;" parent="1" vertex="1" connectable="0">
          <mxGeometry x="1360" y="420" width="40" height="40" as="geometry" />
        </mxCell>
        <mxCell id="uOhwQ_3bFJszyhU1PJdD-58" value="" style="rounded=0;whiteSpace=wrap;html=1;fillColor=#dae8fc;strokeColor=#6c8ebf;fontStyle=1;fontSize=10;fontFamily=Courier New;" parent="uOhwQ_3bFJszyhU1PJdD-176" vertex="1">
          <mxGeometry width="40" height="40" as="geometry" />
        </mxCell>
        <mxCell id="uOhwQ_3bFJszyhU1PJdD-59" value="" style="triangle;whiteSpace=wrap;html=1;direction=south;fontSize=10;fontFamily=Courier New;" parent="uOhwQ_3bFJszyhU1PJdD-176" vertex="1">
          <mxGeometry x="10" width="20" height="10" as="geometry" />
        </mxCell>
        <mxCell id="uOhwQ_3bFJszyhU1PJdD-178" value="" style="edgeStyle=orthogonalEdgeStyle;rounded=0;orthogonalLoop=1;jettySize=auto;html=1;exitDx=0;exitDy=0;entryX=0;entryY=0.5;entryDx=0;entryDy=0;strokeWidth=2;exitX=1;exitY=0.5;fontFamily=Courier New;" parent="1" source="uOhwQ_3bFJszyhU1PJdD-37" target="uOhwQ_3bFJszyhU1PJdD-177" edge="1">
          <mxGeometry relative="1" as="geometry">
            <Array as="points">
              <mxPoint x="1160" y="440" />
              <mxPoint x="1160" y="340" />
            </Array>
            <mxPoint x="1440" y="400" as="targetPoint" />
            <mxPoint x="1120" y="360.0000000000001" as="sourcePoint" />
          </mxGeometry>
        </mxCell>
        <mxCell id="uOhwQ_3bFJszyhU1PJdD-177" value="" style="rounded=0;whiteSpace=wrap;html=1;fillColor=#dae8fc;strokeColor=#6c8ebf;fontStyle=1;fontSize=10;fontFamily=Courier New;" parent="1" vertex="1">
          <mxGeometry x="1360" y="320" width="40" height="40" as="geometry" />
        </mxCell>
        <mxCell id="uOhwQ_3bFJszyhU1PJdD-182" value="" style="triangle;whiteSpace=wrap;html=1;direction=south;fontSize=10;fontFamily=Courier New;" parent="1" vertex="1">
          <mxGeometry x="1370" y="320" width="20" height="10" as="geometry" />
        </mxCell>
        <mxCell id="uOhwQ_3bFJszyhU1PJdD-185" value="" style="triangle;whiteSpace=wrap;html=1;direction=south;fontSize=10;fontFamily=Courier New;" parent="1" vertex="1">
          <mxGeometry x="1370" y="760" width="20" height="10" as="geometry" />
        </mxCell>
        <mxCell id="uOhwQ_3bFJszyhU1PJdD-186" value="" style="edgeStyle=orthogonalEdgeStyle;rounded=0;orthogonalLoop=1;jettySize=auto;html=1;exitX=1;exitY=0.5;exitDx=0;exitDy=0;strokeWidth=2;fontFamily=Courier New;entryX=0;entryY=0.5;entryDx=0;entryDy=0;" parent="1" source="uOhwQ_3bFJszyhU1PJdD-114" target="uOhwQ_3bFJszyhU1PJdD-147" edge="1">
          <mxGeometry relative="1" as="geometry">
            <mxPoint x="810" y="790" as="targetPoint" />
            <Array as="points" />
            <mxPoint x="520" y="780" as="sourcePoint" />
          </mxGeometry>
        </mxCell>
        <mxCell id="uOhwQ_3bFJszyhU1PJdD-184" value="" style="rounded=0;whiteSpace=wrap;html=1;fillColor=#dae8fc;strokeColor=#6c8ebf;fontStyle=1;fontSize=10;fontFamily=Courier New;" parent="1" vertex="1">
          <mxGeometry x="1360" y="760" width="40" height="40" as="geometry" />
        </mxCell>
        <mxCell id="uOhwQ_3bFJszyhU1PJdD-187" style="edgeStyle=orthogonalEdgeStyle;rounded=0;orthogonalLoop=1;jettySize=auto;html=1;exitX=1;exitY=0.5;exitDx=0;exitDy=0;entryX=0;entryY=0.5;entryDx=0;entryDy=0;strokeWidth=2;fontFamily=Courier New;" parent="1" source="uOhwQ_3bFJszyhU1PJdD-147" target="uOhwQ_3bFJszyhU1PJdD-142" edge="1">
          <mxGeometry relative="1" as="geometry" />
        </mxCell>
        <mxCell id="uOhwQ_3bFJszyhU1PJdD-188" style="edgeStyle=orthogonalEdgeStyle;rounded=0;orthogonalLoop=1;jettySize=auto;html=1;exitX=1;exitY=0.5;exitDx=0;exitDy=0;entryX=0;entryY=0.5;entryDx=0;entryDy=0;strokeWidth=2;fontFamily=Courier New;" parent="1" source="uOhwQ_3bFJszyhU1PJdD-142" target="uOhwQ_3bFJszyhU1PJdD-184" edge="1">
          <mxGeometry relative="1" as="geometry" />
        </mxCell>
        <mxCell id="uOhwQ_3bFJszyhU1PJdD-189" value="&lt;span style=&quot;font-size: 10px; background-color: rgb(255, 255, 255);&quot;&gt;pc_p4_W&lt;/span&gt;" style="text;whiteSpace=wrap;html=1;align=center;verticalAlign=middle;fontFamily=Courier New;" parent="1" vertex="1">
          <mxGeometry x="1360" y="800" width="40" height="20" as="geometry" />
        </mxCell>
        <mxCell id="uOhwQ_3bFJszyhU1PJdD-190" value="alu_res_W" style="text;whiteSpace=wrap;html=1;verticalAlign=middle;align=center;fontFamily=Courier New;" parent="1" vertex="1">
          <mxGeometry x="1350" y="360" width="60" height="20" as="geometry" />
        </mxCell>
        <mxCell id="uOhwQ_3bFJszyhU1PJdD-191" value="&lt;span style=&quot;color: rgb(0, 0, 0); font-size: 10px; font-style: normal; font-variant-ligatures: normal; font-variant-caps: normal; font-weight: 400; letter-spacing: normal; orphans: 2; text-indent: 0px; text-transform: none; widows: 2; word-spacing: 0px; -webkit-text-stroke-width: 0px; background-color: rgb(255, 255, 255); text-decoration-thickness: initial; text-decoration-style: initial; text-decoration-color: initial; float: none; display: inline !important;&quot;&gt;z&lt;/span&gt;" style="text;whiteSpace=wrap;html=1;align=center;verticalAlign=middle;fontSize=10;fontFamily=Courier New;" parent="1" vertex="1">
          <mxGeometry x="990" y="380" width="10" height="20" as="geometry" />
        </mxCell>
        <mxCell id="uOhwQ_3bFJszyhU1PJdD-195" value="" style="group;fontFamily=Courier New;" parent="1" vertex="1" connectable="0">
          <mxGeometry x="800" y="560" width="40" height="40" as="geometry" />
        </mxCell>
        <mxCell id="uOhwQ_3bFJszyhU1PJdD-196" value="" style="rounded=0;whiteSpace=wrap;html=1;fillColor=#dae8fc;strokeColor=#6c8ebf;fontStyle=1;fontSize=10;fontFamily=Courier New;" parent="uOhwQ_3bFJszyhU1PJdD-195" vertex="1">
          <mxGeometry width="40" height="40" as="geometry" />
        </mxCell>
        <mxCell id="uOhwQ_3bFJszyhU1PJdD-197" value="" style="triangle;whiteSpace=wrap;html=1;direction=south;fontSize=10;fontFamily=Courier New;" parent="uOhwQ_3bFJszyhU1PJdD-195" vertex="1">
          <mxGeometry x="10" width="20" height="10" as="geometry" />
        </mxCell>
        <mxCell id="uOhwQ_3bFJszyhU1PJdD-202" style="edgeStyle=orthogonalEdgeStyle;rounded=0;orthogonalLoop=1;jettySize=auto;html=1;exitX=1;exitY=0.5;exitDx=0;exitDy=0;fontFamily=Courier New;" parent="1" source="uOhwQ_3bFJszyhU1PJdD-198" target="uOhwQ_3bFJszyhU1PJdD-199" edge="1">
          <mxGeometry relative="1" as="geometry" />
        </mxCell>
        <mxCell id="uOhwQ_3bFJszyhU1PJdD-198" value="" style="rounded=0;whiteSpace=wrap;html=1;fillColor=#dae8fc;strokeColor=#6c8ebf;fontStyle=1;fontSize=10;fontFamily=Courier New;" parent="1" vertex="1">
          <mxGeometry x="1080" y="560" width="40" height="40" as="geometry" />
        </mxCell>
        <mxCell id="uOhwQ_3bFJszyhU1PJdD-203" style="edgeStyle=orthogonalEdgeStyle;rounded=0;orthogonalLoop=1;jettySize=auto;html=1;exitX=1;exitY=0.5;exitDx=0;exitDy=0;entryX=0;entryY=0.5;entryDx=0;entryDy=0;strokeColor=#990000;fontFamily=Courier New;" parent="1" source="uOhwQ_3bFJszyhU1PJdD-199" target="Xh0cIQ-4y86dnE4VFCaW-69" edge="1">
          <mxGeometry relative="1" as="geometry">
            <Array as="points">
              <mxPoint x="1480" y="580" />
              <mxPoint x="1480" y="840" />
              <mxPoint x="570" y="840" />
              <mxPoint x="570" y="480" />
            </Array>
          </mxGeometry>
        </mxCell>
        <mxCell id="uOhwQ_3bFJszyhU1PJdD-199" value="" style="rounded=0;whiteSpace=wrap;html=1;fillColor=#dae8fc;strokeColor=#6c8ebf;fontStyle=1;fontSize=10;fontFamily=Courier New;" parent="1" vertex="1">
          <mxGeometry x="1360" y="560" width="40" height="40" as="geometry" />
        </mxCell>
        <mxCell id="uOhwQ_3bFJszyhU1PJdD-201" style="edgeStyle=orthogonalEdgeStyle;rounded=0;orthogonalLoop=1;jettySize=auto;html=1;exitX=1;exitY=0.5;exitDx=0;exitDy=0;entryX=0;entryY=0.5;entryDx=0;entryDy=0;fontFamily=Courier New;" parent="1" source="uOhwQ_3bFJszyhU1PJdD-196" target="uOhwQ_3bFJszyhU1PJdD-198" edge="1">
          <mxGeometry relative="1" as="geometry" />
        </mxCell>
        <mxCell id="uOhwQ_3bFJszyhU1PJdD-204" value="" style="triangle;whiteSpace=wrap;html=1;direction=south;fontSize=10;fontFamily=Courier New;" parent="1" vertex="1">
          <mxGeometry x="1090" y="560" width="20" height="10" as="geometry" />
        </mxCell>
        <mxCell id="uOhwQ_3bFJszyhU1PJdD-205" value="" style="triangle;whiteSpace=wrap;html=1;direction=south;fontSize=10;fontFamily=Courier New;" parent="1" vertex="1">
          <mxGeometry x="1370" y="560" width="20" height="10" as="geometry" />
        </mxCell>
        <mxCell id="uOhwQ_3bFJszyhU1PJdD-207" value="11:7" style="text;whiteSpace=wrap;html=1;align=right;verticalAlign=middle;fontSize=10;fontFamily=Courier New;" parent="1" vertex="1">
          <mxGeometry x="520" y="570" width="40" height="20" as="geometry" />
        </mxCell>
        <mxCell id="uOhwQ_3bFJszyhU1PJdD-208" value="&lt;span style=&quot;color: rgb(0, 0, 0); font-size: 10px; font-style: normal; font-variant-ligatures: normal; font-variant-caps: normal; font-weight: 400; letter-spacing: normal; orphans: 2; text-indent: 0px; text-transform: none; widows: 2; word-spacing: 0px; -webkit-text-stroke-width: 0px; background-color: rgb(255, 255, 255); text-decoration-thickness: initial; text-decoration-style: initial; text-decoration-color: initial; float: none; display: inline !important;&quot;&gt;rd_E&lt;/span&gt;" style="text;whiteSpace=wrap;html=1;align=center;verticalAlign=middle;fontFamily=Courier New;" parent="1" vertex="1">
          <mxGeometry x="800" y="600" width="40" height="20" as="geometry" />
        </mxCell>
        <mxCell id="uOhwQ_3bFJszyhU1PJdD-209" value="&lt;span style=&quot;color: rgb(0, 0, 0); font-size: 10px; font-style: normal; font-variant-ligatures: normal; font-variant-caps: normal; font-weight: 400; letter-spacing: normal; orphans: 2; text-indent: 0px; text-transform: none; widows: 2; word-spacing: 0px; -webkit-text-stroke-width: 0px; background-color: rgb(255, 255, 255); text-decoration-thickness: initial; text-decoration-style: initial; text-decoration-color: initial; float: none; display: inline !important;&quot;&gt;rd_M&lt;/span&gt;" style="text;whiteSpace=wrap;html=1;align=center;verticalAlign=middle;fontFamily=Courier New;" parent="1" vertex="1">
          <mxGeometry x="1080" y="600" width="40" height="20" as="geometry" />
        </mxCell>
        <mxCell id="uOhwQ_3bFJszyhU1PJdD-210" value="&lt;span style=&quot;color: rgb(0, 0, 0); font-size: 10px; font-style: normal; font-variant-ligatures: normal; font-variant-caps: normal; font-weight: 400; letter-spacing: normal; orphans: 2; text-indent: 0px; text-transform: none; widows: 2; word-spacing: 0px; -webkit-text-stroke-width: 0px; background-color: rgb(255, 255, 255); text-decoration-thickness: initial; text-decoration-style: initial; text-decoration-color: initial; float: none; display: inline !important;&quot;&gt;rd_W&lt;/span&gt;" style="text;whiteSpace=wrap;html=1;align=center;verticalAlign=middle;fontFamily=Courier New;" parent="1" vertex="1">
          <mxGeometry x="1360" y="600" width="40" height="20" as="geometry" />
        </mxCell>
        <mxCell id="uOhwQ_3bFJszyhU1PJdD-211" value="19:15" style="text;whiteSpace=wrap;html=1;align=right;verticalAlign=middle;fontSize=10;fontFamily=Courier New;" parent="1" vertex="1">
          <mxGeometry x="520" y="370" width="40" height="20" as="geometry" />
        </mxCell>
        <mxCell id="uOhwQ_3bFJszyhU1PJdD-212" value="24:20" style="text;whiteSpace=wrap;html=1;align=right;verticalAlign=middle;fontSize=10;fontFamily=Courier New;" parent="1" vertex="1">
          <mxGeometry x="520" y="450" width="40" height="20" as="geometry" />
        </mxCell>
        <mxCell id="uOhwQ_3bFJszyhU1PJdD-213" value="BRU" style="rounded=0;whiteSpace=wrap;html=1;fontStyle=1;fontSize=10;fontFamily=Courier New;strokeColor=#A680B8;" parent="1" vertex="1">
          <mxGeometry x="960" y="640" width="40" height="100" as="geometry" />
        </mxCell>
        <mxCell id="uOhwQ_3bFJszyhU1PJdD-214" style="edgeStyle=orthogonalEdgeStyle;rounded=0;orthogonalLoop=1;jettySize=auto;html=1;exitX=1;exitY=0.5;exitDx=0;exitDy=0;entryX=0;entryY=0.5;entryDx=0;entryDy=0;strokeWidth=2;fontFamily=Courier New;" parent="1" source="uOhwQ_3bFJszyhU1PJdD-70" target="uOhwQ_3bFJszyhU1PJdD-216" edge="1">
          <mxGeometry relative="1" as="geometry" />
        </mxCell>
        <mxCell id="uOhwQ_3bFJszyhU1PJdD-215" style="edgeStyle=orthogonalEdgeStyle;rounded=0;orthogonalLoop=1;jettySize=auto;html=1;exitX=1;exitY=0.5;exitDx=0;exitDy=0;entryX=0;entryY=0.5;entryDx=0;entryDy=0;strokeWidth=2;fontFamily=Courier New;" parent="1" source="uOhwQ_3bFJszyhU1PJdD-74" target="uOhwQ_3bFJszyhU1PJdD-217" edge="1">
          <mxGeometry relative="1" as="geometry" />
        </mxCell>
        <mxCell id="uOhwQ_3bFJszyhU1PJdD-216" value="&lt;span style=&quot;color: rgb(0, 0, 0); font-size: 10px; font-style: normal; font-variant-ligatures: normal; font-variant-caps: normal; font-weight: 400; letter-spacing: normal; orphans: 2; text-indent: 0px; text-transform: none; widows: 2; word-spacing: 0px; -webkit-text-stroke-width: 0px; background-color: rgb(255, 255, 255); text-decoration-thickness: initial; text-decoration-style: initial; text-decoration-color: initial; float: none; display: inline !important;&quot;&gt;a&lt;/span&gt;" style="text;whiteSpace=wrap;html=1;align=center;verticalAlign=middle;fontFamily=Courier New;" parent="1" vertex="1">
          <mxGeometry x="960" y="650" width="10" height="20" as="geometry" />
        </mxCell>
        <mxCell id="uOhwQ_3bFJszyhU1PJdD-217" value="&lt;span style=&quot;color: rgb(0, 0, 0); font-size: 10px; font-style: normal; font-variant-ligatures: normal; font-variant-caps: normal; font-weight: 400; letter-spacing: normal; orphans: 2; text-indent: 0px; text-transform: none; widows: 2; word-spacing: 0px; -webkit-text-stroke-width: 0px; background-color: rgb(255, 255, 255); text-decoration-thickness: initial; text-decoration-style: initial; text-decoration-color: initial; float: none; display: inline !important;&quot;&gt;b&lt;/span&gt;" style="text;whiteSpace=wrap;html=1;align=center;verticalAlign=middle;fontFamily=Courier New;" parent="1" vertex="1">
          <mxGeometry x="960" y="710" width="10" height="20" as="geometry" />
        </mxCell>
        <mxCell id="2xIWPNaYbzSSaSHo523p-4" style="edgeStyle=orthogonalEdgeStyle;rounded=0;orthogonalLoop=1;jettySize=auto;html=1;exitX=1;exitY=0.5;exitDx=0;exitDy=0;entryX=0;entryY=0.5;entryDx=0;entryDy=0;strokeWidth=2;fontFamily=Courier New;" parent="1" source="uOhwQ_3bFJszyhU1PJdD-218" target="2xIWPNaYbzSSaSHo523p-2" edge="1">
          <mxGeometry relative="1" as="geometry">
            <Array as="points" />
          </mxGeometry>
        </mxCell>
        <mxCell id="uOhwQ_3bFJszyhU1PJdD-218" value="&lt;span style=&quot;color: rgb(0, 0, 0); font-size: 10px; font-style: normal; font-variant-ligatures: normal; font-variant-caps: normal; font-weight: 400; letter-spacing: normal; orphans: 2; text-indent: 0px; text-transform: none; widows: 2; word-spacing: 0px; -webkit-text-stroke-width: 0px; background-color: rgb(255, 255, 255); text-decoration-thickness: initial; text-decoration-style: initial; text-decoration-color: initial; float: none; display: inline !important;&quot;&gt;p&lt;/span&gt;" style="text;whiteSpace=wrap;html=1;align=center;verticalAlign=middle;fontFamily=Courier New;" parent="1" vertex="1">
          <mxGeometry x="990" y="680" width="10" height="20" as="geometry" />
        </mxCell>
        <mxCell id="uOhwQ_3bFJszyhU1PJdD-219" value="&lt;span style=&quot;color: rgb(0, 0, 0); font-size: 10px; font-style: normal; font-variant-ligatures: normal; font-variant-caps: normal; font-weight: 400; letter-spacing: normal; orphans: 2; text-indent: 0px; text-transform: none; widows: 2; word-spacing: 0px; -webkit-text-stroke-width: 0px; background-color: rgb(255, 255, 255); text-decoration-thickness: initial; text-decoration-style: initial; text-decoration-color: initial; float: none; display: inline !important;&quot;&gt;pc_target_E&lt;/span&gt;" style="text;whiteSpace=wrap;html=1;align=center;verticalAlign=middle;fontFamily=Courier New;" parent="1" vertex="1">
          <mxGeometry x="1000" y="660" width="80" height="20" as="geometry" />
        </mxCell>
        <mxCell id="2xIWPNaYbzSSaSHo523p-1" value="AUIPC and LUI data path?" style="text;html=1;strokeColor=#b85450;fillColor=#f8cecc;align=left;verticalAlign=top;whiteSpace=wrap;rounded=0;fontSize=24;fontFamily=Courier New;" parent="1" vertex="1">
          <mxGeometry x="2080" y="1091" width="300" height="89" as="geometry" />
        </mxCell>
        <mxCell id="2xIWPNaYbzSSaSHo523p-5" style="edgeStyle=orthogonalEdgeStyle;rounded=0;orthogonalLoop=1;jettySize=auto;html=1;exitX=1;exitY=0.5;exitDx=0;exitDy=0;entryX=0;entryY=0.5;entryDx=0;entryDy=0;strokeWidth=2;fontFamily=Courier New;" parent="1" source="2xIWPNaYbzSSaSHo523p-2" target="2xIWPNaYbzSSaSHo523p-3" edge="1">
          <mxGeometry relative="1" as="geometry" />
        </mxCell>
        <mxCell id="2xIWPNaYbzSSaSHo523p-2" value="" style="rounded=0;whiteSpace=wrap;html=1;fillColor=#dae8fc;strokeColor=#6c8ebf;fontStyle=1;fontSize=10;fontFamily=Courier New;" parent="1" vertex="1">
          <mxGeometry x="1080" y="670" width="40" height="40" as="geometry" />
        </mxCell>
        <mxCell id="2xIWPNaYbzSSaSHo523p-7" style="edgeStyle=orthogonalEdgeStyle;rounded=0;orthogonalLoop=1;jettySize=auto;html=1;exitX=1;exitY=0.5;exitDx=0;exitDy=0;entryX=0;entryY=0.5;entryDx=0;entryDy=0;strokeWidth=2;fontFamily=Courier New;" parent="1" source="2xIWPNaYbzSSaSHo523p-3" target="2xIWPNaYbzSSaSHo523p-6" edge="1">
          <mxGeometry relative="1" as="geometry">
            <Array as="points">
              <mxPoint x="1430" y="690" />
              <mxPoint x="1430" y="530" />
            </Array>
          </mxGeometry>
        </mxCell>
        <mxCell id="2xIWPNaYbzSSaSHo523p-3" value="" style="rounded=0;whiteSpace=wrap;html=1;fillColor=#dae8fc;strokeColor=#6c8ebf;fontStyle=1;fontSize=10;fontFamily=Courier New;" parent="1" vertex="1">
          <mxGeometry x="1360" y="670" width="40" height="40" as="geometry" />
        </mxCell>
        <mxCell id="2xIWPNaYbzSSaSHo523p-6" value="&lt;span style=&quot;color: rgb(0, 0, 0); font-size: 10px; font-style: normal; font-variant-ligatures: normal; font-variant-caps: normal; font-weight: 400; letter-spacing: normal; orphans: 2; text-indent: 0px; text-transform: none; widows: 2; word-spacing: 0px; -webkit-text-stroke-width: 0px; background-color: rgb(255, 255, 255); text-decoration-thickness: initial; text-decoration-style: initial; text-decoration-color: initial; float: none; display: inline !important;&quot;&gt;3&lt;/span&gt;" style="text;whiteSpace=wrap;html=1;align=center;verticalAlign=middle;fontFamily=Courier New;" parent="1" vertex="1">
          <mxGeometry x="1450" y="520" width="10" height="20" as="geometry" />
        </mxCell>
        <mxCell id="uOhwQ_3bFJszyhU1PJdD-44" style="edgeStyle=orthogonalEdgeStyle;rounded=0;orthogonalLoop=1;jettySize=auto;html=1;exitX=1;exitY=0.5;exitDx=0;exitDy=0;entryX=0;entryY=0.5;entryDx=0;entryDy=0;strokeWidth=2;fontFamily=Courier New;strokeColor=#990000;" parent="1" source="uOhwQ_3bFJszyhU1PJdD-213" target="uOhwQ_3bFJszyhU1PJdD-5" edge="1">
          <mxGeometry relative="1" as="geometry">
            <Array as="points">
              <mxPoint x="1020" y="690" />
              <mxPoint x="1020" y="880" />
              <mxPoint x="80" y="880" />
              <mxPoint x="80" y="450" />
            </Array>
          </mxGeometry>
        </mxCell>
        <mxCell id="2xIWPNaYbzSSaSHo523p-8" value="&lt;span style=&quot;color: rgb(0, 0, 0); font-size: 10px; font-style: normal; font-variant-ligatures: normal; font-variant-caps: normal; font-weight: 400; letter-spacing: normal; orphans: 2; text-indent: 0px; text-transform: none; widows: 2; word-spacing: 0px; -webkit-text-stroke-width: 0px; background-color: rgb(255, 255, 255); text-decoration-thickness: initial; text-decoration-style: initial; text-decoration-color: initial; float: none; display: inline !important;&quot;&gt;auipc_M&lt;/span&gt;" style="text;whiteSpace=wrap;html=1;align=center;verticalAlign=middle;fontFamily=Courier New;" parent="1" vertex="1">
          <mxGeometry x="1080" y="710" width="40" height="20" as="geometry" />
        </mxCell>
        <mxCell id="2xIWPNaYbzSSaSHo523p-9" value="&lt;span style=&quot;color: rgb(0, 0, 0); font-size: 10px; font-style: normal; font-variant-ligatures: normal; font-variant-caps: normal; font-weight: 400; letter-spacing: normal; orphans: 2; text-indent: 0px; text-transform: none; widows: 2; word-spacing: 0px; -webkit-text-stroke-width: 0px; background-color: rgb(255, 255, 255); text-decoration-thickness: initial; text-decoration-style: initial; text-decoration-color: initial; float: none; display: inline !important;&quot;&gt;auipc_W&lt;/span&gt;" style="text;whiteSpace=wrap;html=1;align=center;verticalAlign=middle;fontFamily=Courier New;" parent="1" vertex="1">
          <mxGeometry x="1360" y="710" width="40" height="20" as="geometry" />
        </mxCell>
        <mxCell id="2xIWPNaYbzSSaSHo523p-10" value="" style="triangle;whiteSpace=wrap;html=1;direction=south;fontSize=10;fontFamily=Courier New;" parent="1" vertex="1">
          <mxGeometry x="1090" y="670" width="20" height="10" as="geometry" />
        </mxCell>
        <mxCell id="2xIWPNaYbzSSaSHo523p-11" value="" style="triangle;whiteSpace=wrap;html=1;direction=south;fontSize=10;fontFamily=Courier New;" parent="1" vertex="1">
          <mxGeometry x="1370" y="670" width="20" height="10" as="geometry" />
        </mxCell>
        <mxCell id="NXQPdlzBaVOP-Oa7sGbx-8" style="edgeStyle=orthogonalEdgeStyle;rounded=0;orthogonalLoop=1;jettySize=auto;html=1;exitX=1;exitY=0.5;exitDx=0;exitDy=0;entryX=0;entryY=0.5;entryDx=0;entryDy=0;fontFamily=Courier New;" parent="1" target="NXQPdlzBaVOP-Oa7sGbx-5" edge="1">
          <mxGeometry relative="1" as="geometry">
            <mxPoint x="680" y="-200" as="sourcePoint" />
          </mxGeometry>
        </mxCell>
        <mxCell id="NXQPdlzBaVOP-Oa7sGbx-2" value="b_sel" style="text;whiteSpace=wrap;html=1;align=right;verticalAlign=middle;fontSize=10;fontFamily=Courier New;" parent="1" vertex="1">
          <mxGeometry x="630" y="-210" width="50" height="20" as="geometry" />
        </mxCell>
        <mxCell id="NXQPdlzBaVOP-Oa7sGbx-36" style="edgeStyle=orthogonalEdgeStyle;rounded=0;orthogonalLoop=1;jettySize=auto;html=1;exitX=1;exitY=0.5;exitDx=0;exitDy=0;fontFamily=Courier New;" parent="1" source="NXQPdlzBaVOP-Oa7sGbx-3" edge="1">
          <mxGeometry relative="1" as="geometry">
            <mxPoint x="700" y="-429.9090909090909" as="targetPoint" />
          </mxGeometry>
        </mxCell>
        <mxCell id="NXQPdlzBaVOP-Oa7sGbx-3" value="imm_sel" style="text;whiteSpace=wrap;html=1;align=right;verticalAlign=middle;fontSize=10;fontFamily=Courier New;" parent="1" vertex="1">
          <mxGeometry x="630" y="-440" width="50" height="20" as="geometry" />
        </mxCell>
        <mxCell id="NXQPdlzBaVOP-Oa7sGbx-4" value="" style="group;fontFamily=Courier New;" parent="1" vertex="1" connectable="0">
          <mxGeometry x="800" y="-220" width="40" height="40" as="geometry" />
        </mxCell>
        <mxCell id="NXQPdlzBaVOP-Oa7sGbx-5" value="" style="rounded=0;whiteSpace=wrap;html=1;fillColor=#dae8fc;strokeColor=#6c8ebf;fontStyle=1;fontSize=10;fontFamily=Courier New;" parent="NXQPdlzBaVOP-Oa7sGbx-4" vertex="1">
          <mxGeometry width="40" height="40" as="geometry" />
        </mxCell>
        <mxCell id="NXQPdlzBaVOP-Oa7sGbx-6" value="" style="triangle;whiteSpace=wrap;html=1;direction=south;fontSize=10;fontFamily=Courier New;" parent="NXQPdlzBaVOP-Oa7sGbx-4" vertex="1">
          <mxGeometry x="10" width="20" height="10" as="geometry" />
        </mxCell>
        <mxCell id="NXQPdlzBaVOP-Oa7sGbx-7" value="&lt;span style=&quot;color: rgb(0, 0, 0); font-size: 10px; font-style: normal; font-variant-ligatures: normal; font-variant-caps: normal; font-weight: 400; letter-spacing: normal; orphans: 2; text-indent: 0px; text-transform: none; widows: 2; word-spacing: 0px; -webkit-text-stroke-width: 0px; background-color: rgb(255, 255, 255); text-decoration-thickness: initial; text-decoration-style: initial; text-decoration-color: initial; float: none; display: inline !important;&quot;&gt;b_sel_E&lt;/span&gt;" style="text;whiteSpace=wrap;html=1;align=center;verticalAlign=middle;fontFamily=Courier New;" parent="1" vertex="1">
          <mxGeometry x="800" y="-180" width="40" height="20" as="geometry" />
        </mxCell>
        <mxCell id="NXQPdlzBaVOP-Oa7sGbx-14" style="edgeStyle=orthogonalEdgeStyle;rounded=0;orthogonalLoop=1;jettySize=auto;html=1;exitX=1;exitY=0.5;exitDx=0;exitDy=0;entryX=0;entryY=0.5;entryDx=0;entryDy=0;fontFamily=Courier New;" parent="1" target="NXQPdlzBaVOP-Oa7sGbx-11" edge="1">
          <mxGeometry relative="1" as="geometry">
            <mxPoint x="680" y="-260" as="sourcePoint" />
          </mxGeometry>
        </mxCell>
        <mxCell id="NXQPdlzBaVOP-Oa7sGbx-9" value="alu_op" style="text;whiteSpace=wrap;html=1;align=right;verticalAlign=middle;fontSize=10;fontFamily=Courier New;" parent="1" vertex="1">
          <mxGeometry x="630" y="-250" width="50" height="20" as="geometry" />
        </mxCell>
        <mxCell id="NXQPdlzBaVOP-Oa7sGbx-10" value="" style="group;fontFamily=Courier New;" parent="1" vertex="1" connectable="0">
          <mxGeometry x="800" y="-280" width="40" height="40" as="geometry" />
        </mxCell>
        <mxCell id="NXQPdlzBaVOP-Oa7sGbx-11" value="" style="rounded=0;whiteSpace=wrap;html=1;fillColor=#dae8fc;strokeColor=#6c8ebf;fontStyle=1;fontSize=10;fontFamily=Courier New;" parent="NXQPdlzBaVOP-Oa7sGbx-10" vertex="1">
          <mxGeometry width="40" height="40" as="geometry" />
        </mxCell>
        <mxCell id="NXQPdlzBaVOP-Oa7sGbx-12" value="" style="triangle;whiteSpace=wrap;html=1;direction=south;fontSize=10;fontFamily=Courier New;" parent="NXQPdlzBaVOP-Oa7sGbx-10" vertex="1">
          <mxGeometry x="10" width="20" height="10" as="geometry" />
        </mxCell>
        <mxCell id="NXQPdlzBaVOP-Oa7sGbx-13" value="&lt;span style=&quot;color: rgb(0, 0, 0); font-size: 10px; font-style: normal; font-variant-ligatures: normal; font-variant-caps: normal; font-weight: 400; letter-spacing: normal; orphans: 2; text-indent: 0px; text-transform: none; widows: 2; word-spacing: 0px; -webkit-text-stroke-width: 0px; background-color: rgb(255, 255, 255); text-decoration-thickness: initial; text-decoration-style: initial; text-decoration-color: initial; float: none; display: inline !important;&quot;&gt;alu_op_E&lt;/span&gt;" style="text;whiteSpace=wrap;html=1;align=center;verticalAlign=middle;fontFamily=Courier New;" parent="1" vertex="1">
          <mxGeometry x="800" y="-240" width="40" height="20" as="geometry" />
        </mxCell>
        <mxCell id="NXQPdlzBaVOP-Oa7sGbx-17" value="" style="group;fontFamily=Courier New;" parent="1" vertex="1" connectable="0">
          <mxGeometry x="800" y="-340" width="40" height="40" as="geometry" />
        </mxCell>
        <mxCell id="NXQPdlzBaVOP-Oa7sGbx-18" value="" style="rounded=0;whiteSpace=wrap;html=1;fillColor=#dae8fc;strokeColor=#6c8ebf;fontStyle=1;fontSize=10;fontFamily=Courier New;" parent="NXQPdlzBaVOP-Oa7sGbx-17" vertex="1">
          <mxGeometry width="40" height="40" as="geometry" />
        </mxCell>
        <mxCell id="NXQPdlzBaVOP-Oa7sGbx-19" value="" style="triangle;whiteSpace=wrap;html=1;direction=south;fontSize=10;fontFamily=Courier New;" parent="NXQPdlzBaVOP-Oa7sGbx-17" vertex="1">
          <mxGeometry x="10" width="20" height="10" as="geometry" />
        </mxCell>
        <mxCell id="NXQPdlzBaVOP-Oa7sGbx-20" value="&lt;span style=&quot;color: rgb(0, 0, 0); font-size: 10px; font-style: normal; font-variant-ligatures: normal; font-variant-caps: normal; font-weight: 400; letter-spacing: normal; orphans: 2; text-indent: 0px; text-transform: none; widows: 2; word-spacing: 0px; -webkit-text-stroke-width: 0px; background-color: rgb(255, 255, 255); text-decoration-thickness: initial; text-decoration-style: initial; text-decoration-color: initial; float: none; display: inline !important;&quot;&gt;is_brach_E&lt;/span&gt;" style="text;whiteSpace=wrap;html=1;align=center;verticalAlign=middle;fontFamily=Courier New;" parent="1" vertex="1">
          <mxGeometry x="800" y="-300" width="40" height="20" as="geometry" />
        </mxCell>
        <mxCell id="NXQPdlzBaVOP-Oa7sGbx-22" style="edgeStyle=orthogonalEdgeStyle;rounded=0;orthogonalLoop=1;jettySize=auto;html=1;exitX=1;exitY=0.5;exitDx=0;exitDy=0;entryX=0;entryY=0.5;entryDx=0;entryDy=0;fontFamily=Courier New;" parent="1" source="NXQPdlzBaVOP-Oa7sGbx-21" target="NXQPdlzBaVOP-Oa7sGbx-18" edge="1">
          <mxGeometry relative="1" as="geometry" />
        </mxCell>
        <mxCell id="NXQPdlzBaVOP-Oa7sGbx-21" value="is_brach" style="text;whiteSpace=wrap;html=1;align=right;verticalAlign=middle;fontSize=10;fontFamily=Courier New;" parent="1" vertex="1">
          <mxGeometry x="630" y="-330" width="50" height="20" as="geometry" />
        </mxCell>
        <mxCell id="NXQPdlzBaVOP-Oa7sGbx-23" style="edgeStyle=orthogonalEdgeStyle;rounded=0;orthogonalLoop=1;jettySize=auto;html=1;exitX=1;exitY=0.5;exitDx=0;exitDy=0;entryX=0;entryY=0.5;entryDx=0;entryDy=0;fontFamily=Courier New;" parent="1" source="NXQPdlzBaVOP-Oa7sGbx-18" target="NXQPdlzBaVOP-Oa7sGbx-33" edge="1">
          <mxGeometry relative="1" as="geometry">
            <mxPoint x="870" y="-320" as="targetPoint" />
          </mxGeometry>
        </mxCell>
        <mxCell id="NXQPdlzBaVOP-Oa7sGbx-24" value="" style="group;fontFamily=Courier New;" parent="1" vertex="1" connectable="0">
          <mxGeometry x="800" y="-400" width="40" height="40" as="geometry" />
        </mxCell>
        <mxCell id="NXQPdlzBaVOP-Oa7sGbx-25" value="" style="rounded=0;whiteSpace=wrap;html=1;fillColor=#dae8fc;strokeColor=#6c8ebf;fontStyle=1;fontSize=10;fontFamily=Courier New;" parent="NXQPdlzBaVOP-Oa7sGbx-24" vertex="1">
          <mxGeometry width="40" height="40" as="geometry" />
        </mxCell>
        <mxCell id="NXQPdlzBaVOP-Oa7sGbx-26" value="" style="triangle;whiteSpace=wrap;html=1;direction=south;fontSize=10;fontFamily=Courier New;" parent="NXQPdlzBaVOP-Oa7sGbx-24" vertex="1">
          <mxGeometry x="10" width="20" height="10" as="geometry" />
        </mxCell>
        <mxCell id="NXQPdlzBaVOP-Oa7sGbx-27" value="&lt;span style=&quot;color: rgb(0, 0, 0); font-size: 10px; font-style: normal; font-variant-ligatures: normal; font-variant-caps: normal; font-weight: 400; letter-spacing: normal; orphans: 2; text-indent: 0px; text-transform: none; widows: 2; word-spacing: 0px; -webkit-text-stroke-width: 0px; background-color: rgb(255, 255, 255); text-decoration-thickness: initial; text-decoration-style: initial; text-decoration-color: initial; float: none; display: inline !important;&quot;&gt;is_jump_E&lt;/span&gt;" style="text;whiteSpace=wrap;html=1;align=center;verticalAlign=middle;fontFamily=Courier New;" parent="1" vertex="1">
          <mxGeometry x="800" y="-360" width="40" height="20" as="geometry" />
        </mxCell>
        <mxCell id="NXQPdlzBaVOP-Oa7sGbx-28" style="edgeStyle=orthogonalEdgeStyle;rounded=0;orthogonalLoop=1;jettySize=auto;html=1;exitX=1;exitY=0.5;exitDx=0;exitDy=0;entryX=0;entryY=0.5;entryDx=0;entryDy=0;fontFamily=Courier New;" parent="1" source="NXQPdlzBaVOP-Oa7sGbx-29" target="NXQPdlzBaVOP-Oa7sGbx-25" edge="1">
          <mxGeometry relative="1" as="geometry" />
        </mxCell>
        <mxCell id="NXQPdlzBaVOP-Oa7sGbx-29" value="is_jump" style="text;whiteSpace=wrap;html=1;align=right;verticalAlign=middle;fontSize=10;fontFamily=Courier New;" parent="1" vertex="1">
          <mxGeometry x="630" y="-390" width="50" height="20" as="geometry" />
        </mxCell>
        <mxCell id="NXQPdlzBaVOP-Oa7sGbx-30" style="edgeStyle=orthogonalEdgeStyle;rounded=0;orthogonalLoop=1;jettySize=auto;html=1;exitX=1;exitY=0.5;exitDx=0;exitDy=0;entryX=0;entryY=0.5;entryDx=0;entryDy=0;fontFamily=Courier New;" parent="1" source="NXQPdlzBaVOP-Oa7sGbx-25" target="NXQPdlzBaVOP-Oa7sGbx-32" edge="1">
          <mxGeometry relative="1" as="geometry" />
        </mxCell>
        <mxCell id="NXQPdlzBaVOP-Oa7sGbx-31" value="&lt;span style=&quot;color: rgb(0, 0, 0); font-size: 10px; font-style: normal; font-variant-ligatures: normal; font-variant-caps: normal; font-weight: 400; letter-spacing: normal; orphans: 2; text-indent: 0px; text-transform: none; widows: 2; word-spacing: 0px; -webkit-text-stroke-width: 0px; background-color: rgb(255, 255, 255); text-decoration-thickness: initial; text-decoration-style: initial; text-decoration-color: initial; float: none; display: inline !important;&quot;&gt;pc_sel&lt;/span&gt;" style="text;whiteSpace=wrap;html=1;align=center;verticalAlign=middle;fontSize=10;fontFamily=Courier New;" parent="1" vertex="1">
          <mxGeometry x="950" y="-370" width="40" height="20" as="geometry" />
        </mxCell>
        <mxCell id="NXQPdlzBaVOP-Oa7sGbx-32" value="&lt;span style=&quot;background-color: rgb(255, 255, 255);&quot;&gt;jump&lt;/span&gt;" style="text;whiteSpace=wrap;html=1;align=center;verticalAlign=middle;fontSize=10;fontFamily=Courier New;" parent="1" vertex="1">
          <mxGeometry x="920" y="-390" width="40" height="20" as="geometry" />
        </mxCell>
        <mxCell id="NXQPdlzBaVOP-Oa7sGbx-33" value="&lt;span style=&quot;background-color: rgb(255, 255, 255);&quot;&gt;brach&lt;/span&gt;" style="text;whiteSpace=wrap;html=1;align=center;verticalAlign=middle;fontSize=10;fontFamily=Courier New;" parent="1" vertex="1">
          <mxGeometry x="920" y="-330" width="40" height="20" as="geometry" />
        </mxCell>
        <mxCell id="NXQPdlzBaVOP-Oa7sGbx-35" style="edgeStyle=orthogonalEdgeStyle;rounded=0;orthogonalLoop=1;jettySize=auto;html=1;exitX=1;exitY=0.5;exitDx=0;exitDy=0;entryX=0.5;entryY=0;entryDx=0;entryDy=0;fontFamily=Courier New;" parent="1" source="NXQPdlzBaVOP-Oa7sGbx-34" target="Xh0cIQ-4y86dnE4VFCaW-21" edge="1">
          <mxGeometry relative="1" as="geometry" />
        </mxCell>
        <mxCell id="NXQPdlzBaVOP-Oa7sGbx-34" value="imm_sel" style="text;whiteSpace=wrap;html=1;align=right;verticalAlign=middle;fontSize=10;fontFamily=Courier New;" parent="1" vertex="1">
          <mxGeometry x="600" y="670" width="50" height="20" as="geometry" />
        </mxCell>
        <mxCell id="NXQPdlzBaVOP-Oa7sGbx-37" value="" style="group;fontFamily=Courier New;" parent="1" vertex="1" connectable="0">
          <mxGeometry x="800" y="-40" width="40" height="40" as="geometry" />
        </mxCell>
        <mxCell id="NXQPdlzBaVOP-Oa7sGbx-38" value="" style="rounded=0;whiteSpace=wrap;html=1;fillColor=#dae8fc;strokeColor=#6c8ebf;fontStyle=1;fontSize=10;fontFamily=Courier New;" parent="NXQPdlzBaVOP-Oa7sGbx-37" vertex="1">
          <mxGeometry width="40" height="40" as="geometry" />
        </mxCell>
        <mxCell id="NXQPdlzBaVOP-Oa7sGbx-39" value="" style="triangle;whiteSpace=wrap;html=1;direction=south;fontSize=10;fontFamily=Courier New;" parent="NXQPdlzBaVOP-Oa7sGbx-37" vertex="1">
          <mxGeometry x="10" width="20" height="10" as="geometry" />
        </mxCell>
        <mxCell id="NXQPdlzBaVOP-Oa7sGbx-40" value="&lt;span style=&quot;color: rgb(0, 0, 0); font-size: 10px; font-style: normal; font-variant-ligatures: normal; font-variant-caps: normal; font-weight: 400; letter-spacing: normal; orphans: 2; text-indent: 0px; text-transform: none; widows: 2; word-spacing: 0px; -webkit-text-stroke-width: 0px; background-color: rgb(255, 255, 255); text-decoration-thickness: initial; text-decoration-style: initial; text-decoration-color: initial; float: none; display: inline !important;&quot;&gt;we3_E&lt;/span&gt;" style="text;whiteSpace=wrap;html=1;align=center;verticalAlign=middle;fontFamily=Courier New;" parent="1" vertex="1">
          <mxGeometry x="800" width="40" height="20" as="geometry" />
        </mxCell>
        <mxCell id="NXQPdlzBaVOP-Oa7sGbx-42" value="" style="group;fontFamily=Courier New;" parent="1" vertex="1" connectable="0">
          <mxGeometry x="1080" y="-40" width="40" height="40" as="geometry" />
        </mxCell>
        <mxCell id="NXQPdlzBaVOP-Oa7sGbx-43" value="" style="rounded=0;whiteSpace=wrap;html=1;fillColor=#dae8fc;strokeColor=#6c8ebf;fontStyle=1;fontSize=10;fontFamily=Courier New;" parent="NXQPdlzBaVOP-Oa7sGbx-42" vertex="1">
          <mxGeometry width="40" height="40" as="geometry" />
        </mxCell>
        <mxCell id="NXQPdlzBaVOP-Oa7sGbx-44" value="" style="triangle;whiteSpace=wrap;html=1;direction=south;fontSize=10;fontFamily=Courier New;" parent="NXQPdlzBaVOP-Oa7sGbx-42" vertex="1">
          <mxGeometry x="10" width="20" height="10" as="geometry" />
        </mxCell>
        <mxCell id="NXQPdlzBaVOP-Oa7sGbx-45" value="&lt;span style=&quot;color: rgb(0, 0, 0); font-size: 10px; font-style: normal; font-variant-ligatures: normal; font-variant-caps: normal; font-weight: 400; letter-spacing: normal; orphans: 2; text-indent: 0px; text-transform: none; widows: 2; word-spacing: 0px; -webkit-text-stroke-width: 0px; background-color: rgb(255, 255, 255); text-decoration-thickness: initial; text-decoration-style: initial; text-decoration-color: initial; float: none; display: inline !important;&quot;&gt;we3_M&lt;/span&gt;" style="text;whiteSpace=wrap;html=1;align=center;verticalAlign=middle;fontFamily=Courier New;" parent="1" vertex="1">
          <mxGeometry x="1080" width="40" height="20" as="geometry" />
        </mxCell>
        <mxCell id="NXQPdlzBaVOP-Oa7sGbx-46" value="" style="group;fontFamily=Courier New;" parent="1" vertex="1" connectable="0">
          <mxGeometry x="1360" y="-40" width="40" height="40" as="geometry" />
        </mxCell>
        <mxCell id="NXQPdlzBaVOP-Oa7sGbx-47" value="" style="rounded=0;whiteSpace=wrap;html=1;fillColor=#dae8fc;strokeColor=#6c8ebf;fontStyle=1;fontSize=10;fontFamily=Courier New;" parent="NXQPdlzBaVOP-Oa7sGbx-46" vertex="1">
          <mxGeometry width="40" height="40" as="geometry" />
        </mxCell>
        <mxCell id="NXQPdlzBaVOP-Oa7sGbx-48" value="" style="triangle;whiteSpace=wrap;html=1;direction=south;fontSize=10;fontFamily=Courier New;" parent="NXQPdlzBaVOP-Oa7sGbx-46" vertex="1">
          <mxGeometry x="10" width="20" height="10" as="geometry" />
        </mxCell>
        <mxCell id="NXQPdlzBaVOP-Oa7sGbx-49" value="&lt;span style=&quot;color: rgb(0, 0, 0); font-size: 10px; font-style: normal; font-variant-ligatures: normal; font-variant-caps: normal; font-weight: 400; letter-spacing: normal; orphans: 2; text-indent: 0px; text-transform: none; widows: 2; word-spacing: 0px; -webkit-text-stroke-width: 0px; background-color: rgb(255, 255, 255); text-decoration-thickness: initial; text-decoration-style: initial; text-decoration-color: initial; float: none; display: inline !important;&quot;&gt;we3_W&lt;/span&gt;" style="text;whiteSpace=wrap;html=1;align=center;verticalAlign=middle;fontFamily=Courier New;" parent="1" vertex="1">
          <mxGeometry x="1360" width="40" height="20" as="geometry" />
        </mxCell>
        <mxCell id="NXQPdlzBaVOP-Oa7sGbx-50" style="edgeStyle=orthogonalEdgeStyle;rounded=0;orthogonalLoop=1;jettySize=auto;html=1;exitX=1;exitY=0.5;exitDx=0;exitDy=0;entryX=0;entryY=0.5;entryDx=0;entryDy=0;fontFamily=Courier New;" parent="1" source="NXQPdlzBaVOP-Oa7sGbx-38" target="NXQPdlzBaVOP-Oa7sGbx-43" edge="1">
          <mxGeometry relative="1" as="geometry" />
        </mxCell>
        <mxCell id="NXQPdlzBaVOP-Oa7sGbx-51" style="edgeStyle=orthogonalEdgeStyle;rounded=0;orthogonalLoop=1;jettySize=auto;html=1;exitX=1;exitY=0.5;exitDx=0;exitDy=0;entryX=0;entryY=0.5;entryDx=0;entryDy=0;fontFamily=Courier New;" parent="1" source="NXQPdlzBaVOP-Oa7sGbx-43" target="NXQPdlzBaVOP-Oa7sGbx-47" edge="1">
          <mxGeometry relative="1" as="geometry" />
        </mxCell>
        <mxCell id="NXQPdlzBaVOP-Oa7sGbx-52" style="edgeStyle=orthogonalEdgeStyle;rounded=0;orthogonalLoop=1;jettySize=auto;html=1;exitX=1;exitY=0.5;exitDx=0;exitDy=0;entryX=0.5;entryY=0;entryDx=0;entryDy=0;strokeColor=#990000;fontFamily=Courier New;" parent="1" source="NXQPdlzBaVOP-Oa7sGbx-47" target="Xh0cIQ-4y86dnE4VFCaW-16" edge="1">
          <mxGeometry relative="1" as="geometry">
            <Array as="points">
              <mxPoint x="1420" y="-20" />
              <mxPoint x="1420" y="80" />
              <mxPoint x="660" y="80" />
            </Array>
          </mxGeometry>
        </mxCell>
        <mxCell id="NXQPdlzBaVOP-Oa7sGbx-53" value="" style="group;fontFamily=Courier New;" parent="1" vertex="1" connectable="0">
          <mxGeometry x="1080" y="-160" width="40" height="40" as="geometry" />
        </mxCell>
        <mxCell id="NXQPdlzBaVOP-Oa7sGbx-54" value="" style="rounded=0;whiteSpace=wrap;html=1;fillColor=#dae8fc;strokeColor=#6c8ebf;fontStyle=1;fontSize=10;fontFamily=Courier New;" parent="NXQPdlzBaVOP-Oa7sGbx-53" vertex="1">
          <mxGeometry width="40" height="40" as="geometry" />
        </mxCell>
        <mxCell id="NXQPdlzBaVOP-Oa7sGbx-55" value="" style="triangle;whiteSpace=wrap;html=1;direction=south;fontSize=10;fontFamily=Courier New;" parent="NXQPdlzBaVOP-Oa7sGbx-53" vertex="1">
          <mxGeometry x="10" width="20" height="10" as="geometry" />
        </mxCell>
        <mxCell id="NXQPdlzBaVOP-Oa7sGbx-56" value="&lt;span style=&quot;color: rgb(0, 0, 0); font-size: 10px; font-style: normal; font-variant-ligatures: normal; font-variant-caps: normal; font-weight: 400; letter-spacing: normal; orphans: 2; text-indent: 0px; text-transform: none; widows: 2; word-spacing: 0px; -webkit-text-stroke-width: 0px; background-color: rgb(255, 255, 255); text-decoration-thickness: initial; text-decoration-style: initial; text-decoration-color: initial; float: none; display: inline !important;&quot;&gt;dmem_we_M&lt;/span&gt;" style="text;whiteSpace=wrap;html=1;align=center;verticalAlign=middle;fontFamily=Courier New;" parent="1" vertex="1">
          <mxGeometry x="1080" y="-120" width="40" height="20" as="geometry" />
        </mxCell>
        <mxCell id="NXQPdlzBaVOP-Oa7sGbx-58" value="" style="group;fontFamily=Courier New;" parent="1" vertex="1" connectable="0">
          <mxGeometry x="1080" y="-100" width="40" height="40" as="geometry" />
        </mxCell>
        <mxCell id="NXQPdlzBaVOP-Oa7sGbx-59" value="" style="rounded=0;whiteSpace=wrap;html=1;fillColor=#dae8fc;strokeColor=#6c8ebf;fontStyle=1;fontSize=10;fontFamily=Courier New;" parent="NXQPdlzBaVOP-Oa7sGbx-58" vertex="1">
          <mxGeometry width="40" height="40" as="geometry" />
        </mxCell>
        <mxCell id="NXQPdlzBaVOP-Oa7sGbx-60" value="" style="triangle;whiteSpace=wrap;html=1;direction=south;fontSize=10;fontFamily=Courier New;" parent="NXQPdlzBaVOP-Oa7sGbx-58" vertex="1">
          <mxGeometry x="10" width="20" height="10" as="geometry" />
        </mxCell>
        <mxCell id="NXQPdlzBaVOP-Oa7sGbx-61" value="&lt;span style=&quot;color: rgb(0, 0, 0); font-size: 10px; font-style: normal; font-variant-ligatures: normal; font-variant-caps: normal; font-weight: 400; letter-spacing: normal; orphans: 2; text-indent: 0px; text-transform: none; widows: 2; word-spacing: 0px; -webkit-text-stroke-width: 0px; background-color: rgb(255, 255, 255); text-decoration-thickness: initial; text-decoration-style: initial; text-decoration-color: initial; float: none; display: inline !important;&quot;&gt;res_sel_M&lt;/span&gt;" style="text;whiteSpace=wrap;html=1;align=center;verticalAlign=middle;fontFamily=Courier New;" parent="1" vertex="1">
          <mxGeometry x="1070" y="-60" width="60" height="20" as="geometry" />
        </mxCell>
        <mxCell id="NXQPdlzBaVOP-Oa7sGbx-62" value="" style="group;fontFamily=Courier New;" parent="1" vertex="1" connectable="0">
          <mxGeometry x="1360" y="-100" width="40" height="40" as="geometry" />
        </mxCell>
        <mxCell id="NXQPdlzBaVOP-Oa7sGbx-63" value="" style="rounded=0;whiteSpace=wrap;html=1;fillColor=#dae8fc;strokeColor=#6c8ebf;fontStyle=1;fontSize=10;fontFamily=Courier New;" parent="NXQPdlzBaVOP-Oa7sGbx-62" vertex="1">
          <mxGeometry width="40" height="40" as="geometry" />
        </mxCell>
        <mxCell id="NXQPdlzBaVOP-Oa7sGbx-64" value="" style="triangle;whiteSpace=wrap;html=1;direction=south;fontSize=10;fontFamily=Courier New;" parent="NXQPdlzBaVOP-Oa7sGbx-62" vertex="1">
          <mxGeometry x="10" width="20" height="10" as="geometry" />
        </mxCell>
        <mxCell id="NXQPdlzBaVOP-Oa7sGbx-65" value="&lt;span style=&quot;font-size: 10px; background-color: rgb(255, 255, 255);&quot;&gt;res_sel_W&lt;/span&gt;" style="text;whiteSpace=wrap;html=1;align=center;verticalAlign=middle;fontFamily=Courier New;" parent="1" vertex="1">
          <mxGeometry x="1360" y="-60" width="40" height="20" as="geometry" />
        </mxCell>
        <mxCell id="NXQPdlzBaVOP-Oa7sGbx-67" style="edgeStyle=orthogonalEdgeStyle;rounded=0;orthogonalLoop=1;jettySize=auto;html=1;exitX=1;exitY=0.5;exitDx=0;exitDy=0;entryX=0;entryY=0.5;entryDx=0;entryDy=0;fontFamily=Courier New;" parent="1" source="NXQPdlzBaVOP-Oa7sGbx-59" target="NXQPdlzBaVOP-Oa7sGbx-63" edge="1">
          <mxGeometry relative="1" as="geometry" />
        </mxCell>
        <mxCell id="NXQPdlzBaVOP-Oa7sGbx-68" value="" style="group;fontFamily=Courier New;" parent="1" vertex="1" connectable="0">
          <mxGeometry x="800" y="-100" width="40" height="40" as="geometry" />
        </mxCell>
        <mxCell id="NXQPdlzBaVOP-Oa7sGbx-69" value="" style="rounded=0;whiteSpace=wrap;html=1;fillColor=#dae8fc;strokeColor=#6c8ebf;fontStyle=1;fontSize=10;fontFamily=Courier New;" parent="NXQPdlzBaVOP-Oa7sGbx-68" vertex="1">
          <mxGeometry width="40" height="40" as="geometry" />
        </mxCell>
        <mxCell id="NXQPdlzBaVOP-Oa7sGbx-70" value="" style="triangle;whiteSpace=wrap;html=1;direction=south;fontSize=10;fontFamily=Courier New;" parent="NXQPdlzBaVOP-Oa7sGbx-68" vertex="1">
          <mxGeometry x="10" width="20" height="10" as="geometry" />
        </mxCell>
        <mxCell id="NXQPdlzBaVOP-Oa7sGbx-71" value="&lt;span style=&quot;color: rgb(0, 0, 0); font-size: 10px; font-style: normal; font-variant-ligatures: normal; font-variant-caps: normal; font-weight: 400; letter-spacing: normal; orphans: 2; text-indent: 0px; text-transform: none; widows: 2; word-spacing: 0px; -webkit-text-stroke-width: 0px; background-color: rgb(255, 255, 255); text-decoration-thickness: initial; text-decoration-style: initial; text-decoration-color: initial; float: none; display: inline !important;&quot;&gt;res_sel_E&lt;/span&gt;" style="text;whiteSpace=wrap;html=1;align=center;verticalAlign=middle;fontFamily=Courier New;" parent="1" vertex="1">
          <mxGeometry x="790" y="-60" width="60" height="20" as="geometry" />
        </mxCell>
        <mxCell id="NXQPdlzBaVOP-Oa7sGbx-73" style="edgeStyle=orthogonalEdgeStyle;rounded=0;orthogonalLoop=1;jettySize=auto;html=1;exitX=1;exitY=0.5;exitDx=0;exitDy=0;entryX=0;entryY=0.5;entryDx=0;entryDy=0;fontFamily=Courier New;" parent="1" source="NXQPdlzBaVOP-Oa7sGbx-72" target="NXQPdlzBaVOP-Oa7sGbx-69" edge="1">
          <mxGeometry relative="1" as="geometry" />
        </mxCell>
        <mxCell id="NXQPdlzBaVOP-Oa7sGbx-72" value="res_sel" style="text;whiteSpace=wrap;html=1;verticalAlign=middle;align=center;fontSize=10;fontFamily=Courier New;" parent="1" vertex="1">
          <mxGeometry x="640" y="-90" width="40" height="20" as="geometry" />
        </mxCell>
        <mxCell id="NXQPdlzBaVOP-Oa7sGbx-74" style="edgeStyle=orthogonalEdgeStyle;rounded=0;orthogonalLoop=1;jettySize=auto;html=1;exitX=1;exitY=0.5;exitDx=0;exitDy=0;entryX=0;entryY=0.5;entryDx=0;entryDy=0;fontFamily=Courier New;" parent="1" source="NXQPdlzBaVOP-Oa7sGbx-69" target="NXQPdlzBaVOP-Oa7sGbx-59" edge="1">
          <mxGeometry relative="1" as="geometry" />
        </mxCell>
        <mxCell id="NXQPdlzBaVOP-Oa7sGbx-75" value="" style="group;fontFamily=Courier New;" parent="1" vertex="1" connectable="0">
          <mxGeometry x="800" y="-160" width="40" height="40" as="geometry" />
        </mxCell>
        <mxCell id="NXQPdlzBaVOP-Oa7sGbx-76" value="" style="rounded=0;whiteSpace=wrap;html=1;fillColor=#dae8fc;strokeColor=#6c8ebf;fontStyle=1;fontSize=10;fontFamily=Courier New;" parent="NXQPdlzBaVOP-Oa7sGbx-75" vertex="1">
          <mxGeometry width="40" height="40" as="geometry" />
        </mxCell>
        <mxCell id="NXQPdlzBaVOP-Oa7sGbx-77" value="" style="triangle;whiteSpace=wrap;html=1;direction=south;fontSize=10;fontFamily=Courier New;" parent="NXQPdlzBaVOP-Oa7sGbx-75" vertex="1">
          <mxGeometry x="10" width="20" height="10" as="geometry" />
        </mxCell>
        <mxCell id="NXQPdlzBaVOP-Oa7sGbx-78" value="&lt;span style=&quot;color: rgb(0, 0, 0); font-size: 10px; font-style: normal; font-variant-ligatures: normal; font-variant-caps: normal; font-weight: 400; letter-spacing: normal; orphans: 2; text-indent: 0px; text-transform: none; widows: 2; word-spacing: 0px; -webkit-text-stroke-width: 0px; background-color: rgb(255, 255, 255); text-decoration-thickness: initial; text-decoration-style: initial; text-decoration-color: initial; float: none; display: inline !important;&quot;&gt;dmem_we_E&lt;/span&gt;" style="text;whiteSpace=wrap;html=1;align=center;verticalAlign=middle;fontFamily=Courier New;" parent="1" vertex="1">
          <mxGeometry x="800" y="-120" width="40" height="20" as="geometry" />
        </mxCell>
        <mxCell id="NXQPdlzBaVOP-Oa7sGbx-79" style="edgeStyle=orthogonalEdgeStyle;rounded=0;orthogonalLoop=1;jettySize=auto;html=1;exitX=1;exitY=0.5;exitDx=0;exitDy=0;entryX=0;entryY=0.5;entryDx=0;entryDy=0;fontFamily=Courier New;" parent="1" source="NXQPdlzBaVOP-Oa7sGbx-76" target="NXQPdlzBaVOP-Oa7sGbx-54" edge="1">
          <mxGeometry relative="1" as="geometry" />
        </mxCell>
        <mxCell id="NXQPdlzBaVOP-Oa7sGbx-81" style="edgeStyle=orthogonalEdgeStyle;rounded=0;orthogonalLoop=1;jettySize=auto;html=1;exitX=1;exitY=0.5;exitDx=0;exitDy=0;entryX=0;entryY=0.5;entryDx=0;entryDy=0;fontFamily=Courier New;" parent="1" source="NXQPdlzBaVOP-Oa7sGbx-80" target="NXQPdlzBaVOP-Oa7sGbx-76" edge="1">
          <mxGeometry relative="1" as="geometry" />
        </mxCell>
        <mxCell id="NXQPdlzBaVOP-Oa7sGbx-80" value="dmem_we" style="text;whiteSpace=wrap;html=1;align=right;verticalAlign=middle;fontSize=10;fontFamily=Courier New;" parent="1" vertex="1">
          <mxGeometry x="630" y="-150" width="50" height="20" as="geometry" />
        </mxCell>
        <mxCell id="NXQPdlzBaVOP-Oa7sGbx-82" value="b_sel" style="text;whiteSpace=wrap;html=1;verticalAlign=middle;align=center;fontSize=10;fontFamily=Courier New;" parent="1" vertex="1">
          <mxGeometry x="900" y="100" width="60" height="20" as="geometry" />
        </mxCell>
        <mxCell id="NXQPdlzBaVOP-Oa7sGbx-83" value="alu_op" style="text;whiteSpace=wrap;html=1;verticalAlign=middle;align=center;fontSize=10;fontFamily=Courier New;" parent="1" vertex="1">
          <mxGeometry x="950" y="100" width="60" height="20" as="geometry" />
        </mxCell>
        <mxCell id="NXQPdlzBaVOP-Oa7sGbx-84" value="z" style="text;whiteSpace=wrap;html=1;verticalAlign=middle;align=center;fontSize=10;fontFamily=Courier New;" parent="1" vertex="1">
          <mxGeometry x="980" y="100" width="60" height="20" as="geometry" />
        </mxCell>
        <mxCell id="WgEoUre0Wiz4sowLXsW1-1" value="" style="group;fontFamily=Courier New;fillColor=#e1d5e7;strokeColor=#9673a6;container=0;" vertex="1" connectable="0" parent="1">
          <mxGeometry x="200" y="1000" width="40" height="40" as="geometry" />
        </mxCell>
        <mxCell id="WgEoUre0Wiz4sowLXsW1-9" style="edgeStyle=orthogonalEdgeStyle;rounded=0;orthogonalLoop=1;jettySize=auto;html=1;exitX=1;exitY=0.5;exitDx=0;exitDy=0;entryX=0;entryY=0.5;entryDx=0;entryDy=0;" edge="1" parent="1" source="WgEoUre0Wiz4sowLXsW1-2" target="WgEoUre0Wiz4sowLXsW1-6">
          <mxGeometry relative="1" as="geometry" />
        </mxCell>
        <mxCell id="WgEoUre0Wiz4sowLXsW1-2" value="" style="rounded=0;whiteSpace=wrap;html=1;fillColor=#e1d5e7;strokeColor=#9673a6;fontStyle=1;fontSize=10;fontFamily=Courier New;" vertex="1" parent="1">
          <mxGeometry x="200" y="1000" width="40" height="40" as="geometry" />
        </mxCell>
        <mxCell id="WgEoUre0Wiz4sowLXsW1-3" value="" style="triangle;whiteSpace=wrap;html=1;direction=south;fontSize=10;fontFamily=Courier New;" vertex="1" parent="1">
          <mxGeometry x="210" y="1000" width="20" height="10" as="geometry" />
        </mxCell>
        <mxCell id="WgEoUre0Wiz4sowLXsW1-4" value="&lt;span style=&quot;font-size: 10px; background-color: rgb(255, 255, 255);&quot;&gt;pc_v&lt;/span&gt;" style="text;whiteSpace=wrap;html=1;align=center;verticalAlign=middle;fontFamily=Courier New;" vertex="1" parent="1">
          <mxGeometry x="200" y="1040" width="40" height="20" as="geometry" />
        </mxCell>
        <mxCell id="WgEoUre0Wiz4sowLXsW1-5" value="" style="group;fontFamily=Courier New;fillColor=#e1d5e7;strokeColor=#9673a6;container=0;" vertex="1" connectable="0" parent="1">
          <mxGeometry x="480" y="1000" width="40" height="40" as="geometry" />
        </mxCell>
        <mxCell id="WgEoUre0Wiz4sowLXsW1-14" style="edgeStyle=orthogonalEdgeStyle;rounded=0;orthogonalLoop=1;jettySize=auto;html=1;exitX=1;exitY=0.5;exitDx=0;exitDy=0;entryX=0;entryY=0.5;entryDx=0;entryDy=0;" edge="1" parent="1" source="WgEoUre0Wiz4sowLXsW1-6" target="WgEoUre0Wiz4sowLXsW1-11">
          <mxGeometry relative="1" as="geometry" />
        </mxCell>
        <mxCell id="WgEoUre0Wiz4sowLXsW1-6" value="" style="rounded=0;whiteSpace=wrap;html=1;fillColor=#e1d5e7;strokeColor=#9673a6;fontStyle=1;fontSize=10;fontFamily=Courier New;" vertex="1" parent="1">
          <mxGeometry x="480" y="1000" width="40" height="40" as="geometry" />
        </mxCell>
        <mxCell id="WgEoUre0Wiz4sowLXsW1-7" value="" style="triangle;whiteSpace=wrap;html=1;direction=south;fontSize=10;fontFamily=Courier New;" vertex="1" parent="1">
          <mxGeometry x="490" y="1000" width="20" height="10" as="geometry" />
        </mxCell>
        <mxCell id="WgEoUre0Wiz4sowLXsW1-8" value="&lt;span style=&quot;font-size: 10px; background-color: rgb(255, 255, 255);&quot;&gt;pc_v_D&lt;/span&gt;" style="text;whiteSpace=wrap;html=1;align=center;verticalAlign=middle;fontFamily=Courier New;" vertex="1" parent="1">
          <mxGeometry x="480" y="1040" width="40" height="20" as="geometry" />
        </mxCell>
        <mxCell id="WgEoUre0Wiz4sowLXsW1-10" value="" style="group;fontFamily=Courier New;fillColor=#e1d5e7;strokeColor=#9673a6;container=0;" vertex="1" connectable="0" parent="1">
          <mxGeometry x="800" y="1000" width="40" height="40" as="geometry" />
        </mxCell>
        <mxCell id="WgEoUre0Wiz4sowLXsW1-11" value="" style="rounded=0;whiteSpace=wrap;html=1;fillColor=#e1d5e7;strokeColor=#9673a6;fontStyle=1;fontSize=10;fontFamily=Courier New;" vertex="1" parent="1">
          <mxGeometry x="800" y="1000" width="40" height="40" as="geometry" />
        </mxCell>
        <mxCell id="WgEoUre0Wiz4sowLXsW1-12" value="" style="triangle;whiteSpace=wrap;html=1;direction=south;fontSize=10;fontFamily=Courier New;" vertex="1" parent="1">
          <mxGeometry x="810" y="1000" width="20" height="10" as="geometry" />
        </mxCell>
        <mxCell id="WgEoUre0Wiz4sowLXsW1-13" value="&lt;span style=&quot;font-size: 10px; background-color: rgb(255, 255, 255);&quot;&gt;pc_v_E&lt;/span&gt;" style="text;whiteSpace=wrap;html=1;align=center;verticalAlign=middle;fontFamily=Courier New;" vertex="1" parent="1">
          <mxGeometry x="800" y="1040" width="40" height="20" as="geometry" />
        </mxCell>
      </root>
    </mxGraphModel>
  </diagram>
</mxfile>
